<svg width="231" height="209" viewBox="0 0 231 209" fill="none" xmlns="http://www.w3.org/2000/svg">
<rect width="230" height="209" transform="translate(0.5)" fill="white"/>
<g clip-path="url(#clip0_965_140)">
<g clip-path="url(#clip1_965_140)">
<path d="M134.589 42.5255H129.519V37.4559C129.519 36.5596 129.163 35.6999 128.529 35.0661C127.895 34.4323 127.036 34.0762 126.139 34.0762H105.861C104.964 34.0762 104.105 34.4323 103.471 35.0661C102.837 35.6999 102.481 36.5596 102.481 37.4559V42.5255H97.4114C96.0669 42.5255 94.7774 43.0597 93.8267 44.0104C92.8759 44.9611 92.3418 46.2506 92.3418 47.5952V71.2534C92.3418 72.1497 92.6979 73.0094 93.3317 73.6432C93.9655 74.2771 94.8252 74.6331 95.7215 74.6331H136.279C137.175 74.6331 138.035 74.2771 138.668 73.6432C139.302 73.0094 139.658 72.1497 139.658 71.2534V47.5952C139.658 46.2506 139.124 44.9611 138.173 44.0104C137.223 43.0597 135.933 42.5255 134.589 42.5255ZM105.861 37.4559H126.139V42.5255H105.861V37.4559ZM136.279 71.2534H95.7215V56.0445H109.241V64.4939H122.76V56.0445H136.279V71.2534ZM112.62 56.0445H119.38V61.1141H112.62V56.0445ZM95.7215 52.6648V47.5952C95.7215 47.147 95.8996 46.7172 96.2165 46.4002C96.5334 46.0833 96.9632 45.9053 97.4114 45.9053H134.589C135.037 45.9053 135.467 46.0833 135.784 46.4002C136.1 46.7172 136.279 47.147 136.279 47.5952V52.6648H95.7215Z" fill="#0D5C63"/>
</g>
</g>
<path d="M82.98 103V107.2L72.58 131H65.54L75.58 108.28H66.3V112.84H60.54V103H82.98ZM109.088 125.12H104.528V131H98.2075V125.12H83.1275V120.76L96.3275 103H103.128L90.8875 119.84H98.4075V114.6H104.528V119.84H109.088V125.12ZM124.706 113.44C126.492 113.44 128.119 113.8 129.586 114.52C131.052 115.24 132.212 116.267 133.066 117.6C133.919 118.907 134.346 120.427 134.346 122.16C134.346 124.027 133.879 125.667 132.946 127.08C132.012 128.493 130.732 129.587 129.106 130.36C127.506 131.107 125.719 131.48 123.746 131.48C119.826 131.48 116.759 130.28 114.546 127.88C112.332 125.48 111.226 122.053 111.226 117.6C111.226 114.427 111.826 111.707 113.026 109.44C114.226 107.173 115.892 105.453 118.026 104.28C120.186 103.107 122.679 102.52 125.506 102.52C126.999 102.52 128.426 102.693 129.786 103.04C131.172 103.36 132.346 103.827 133.306 104.44L130.906 109.2C129.519 108.267 127.772 107.8 125.666 107.8C123.292 107.8 121.412 108.493 120.026 109.88C118.639 111.267 117.892 113.28 117.786 115.92C119.439 114.267 121.746 113.44 124.706 113.44ZM123.386 126.64C124.772 126.64 125.892 126.267 126.746 125.52C127.626 124.773 128.066 123.76 128.066 122.48C128.066 121.2 127.626 120.187 126.746 119.44C125.892 118.667 124.746 118.28 123.306 118.28C121.892 118.28 120.732 118.68 119.826 119.48C118.919 120.253 118.466 121.253 118.466 122.48C118.466 123.707 118.906 124.707 119.786 125.48C120.666 126.253 121.866 126.64 123.386 126.64ZM168.383 119.44H161.423V126.24H156.263V119.44H149.343V114.56H156.263V107.76H161.423V114.56H168.383V119.44Z" fill="#252B42"/>
<path d="M43.2067 167.176C43.8467 167.379 44.348 167.72 44.7107 168.2C45.0734 168.669 45.2547 169.251 45.2547 169.944C45.2547 170.925 44.8707 171.683 44.1027 172.216C43.3454 172.739 42.236 173 40.7747 173H34.9827V161.8H40.4547C41.82 161.8 42.8654 162.061 43.5907 162.584C44.3267 163.107 44.6947 163.816 44.6947 164.712C44.6947 165.256 44.5614 165.741 44.2947 166.168C44.0387 166.595 43.676 166.931 43.2067 167.176ZM37.5587 163.752V166.392H40.1347C40.7747 166.392 41.26 166.28 41.5907 166.056C41.9214 165.832 42.0867 165.501 42.0867 165.064C42.0867 164.627 41.9214 164.301 41.5907 164.088C41.26 163.864 40.7747 163.752 40.1347 163.752H37.5587ZM40.5827 171.048C41.2654 171.048 41.7774 170.936 42.1187 170.712C42.4707 170.488 42.6467 170.141 42.6467 169.672C42.6467 168.744 41.9587 168.28 40.5827 168.28H37.5587V171.048H40.5827ZM55.8131 164.392V173H53.4451V171.976C53.1144 172.349 52.7197 172.637 52.2611 172.84C51.8024 173.032 51.3064 173.128 50.7731 173.128C49.6424 173.128 48.7464 172.803 48.0851 172.152C47.4237 171.501 47.0931 170.536 47.0931 169.256V164.392H49.5891V168.888C49.5891 170.275 50.1704 170.968 51.3331 170.968C51.9304 170.968 52.4104 170.776 52.7731 170.392C53.1357 169.997 53.3171 169.416 53.3171 168.648V164.392H55.8131ZM61.1214 173.128C60.4068 173.128 59.7081 173.043 59.0254 172.872C58.3428 172.691 57.7988 172.467 57.3934 172.2L58.2254 170.408C58.6094 170.653 59.0734 170.856 59.6174 171.016C60.1614 171.165 60.6948 171.24 61.2174 171.24C62.2734 171.24 62.8014 170.979 62.8014 170.456C62.8014 170.211 62.6574 170.035 62.3694 169.928C62.0814 169.821 61.6388 169.731 61.0414 169.656C60.3374 169.549 59.7561 169.427 59.2974 169.288C58.8388 169.149 58.4388 168.904 58.0974 168.552C57.7668 168.2 57.6014 167.699 57.6014 167.048C57.6014 166.504 57.7561 166.024 58.0654 165.608C58.3854 165.181 58.8441 164.851 59.4414 164.616C60.0494 164.381 60.7641 164.264 61.5854 164.264C62.1934 164.264 62.7961 164.333 63.3934 164.472C64.0014 164.6 64.5028 164.781 64.8974 165.016L64.0654 166.792C63.3081 166.365 62.4814 166.152 61.5854 166.152C61.0521 166.152 60.6521 166.227 60.3854 166.376C60.1188 166.525 59.9854 166.717 59.9854 166.952C59.9854 167.219 60.1294 167.405 60.4174 167.512C60.7054 167.619 61.1641 167.72 61.7934 167.816C62.4974 167.933 63.0734 168.061 63.5214 168.2C63.9694 168.328 64.3588 168.568 64.6894 168.92C65.0201 169.272 65.1854 169.763 65.1854 170.392C65.1854 170.925 65.0254 171.4 64.7054 171.816C64.3854 172.232 63.9161 172.557 63.2974 172.792C62.6894 173.016 61.9641 173.128 61.1214 173.128ZM66.8254 164.392H69.3214V173H66.8254V164.392ZM68.0734 163.192C67.6148 163.192 67.2414 163.059 66.9534 162.792C66.6654 162.525 66.5214 162.195 66.5214 161.8C66.5214 161.405 66.6654 161.075 66.9534 160.808C67.2414 160.541 67.6148 160.408 68.0734 160.408C68.5321 160.408 68.9054 160.536 69.1934 160.792C69.4814 161.048 69.6254 161.368 69.6254 161.752C69.6254 162.168 69.4814 162.515 69.1934 162.792C68.9054 163.059 68.5321 163.192 68.0734 163.192ZM76.9699 164.264C78.0366 164.264 78.8953 164.584 79.5459 165.224C80.2073 165.864 80.5379 166.813 80.5379 168.072V173H78.0419V168.456C78.0419 167.773 77.8926 167.267 77.5939 166.936C77.2953 166.595 76.8633 166.424 76.2979 166.424C75.6686 166.424 75.1673 166.621 74.7939 167.016C74.4206 167.4 74.2339 167.976 74.2339 168.744V173H71.7379V164.392H74.1219V165.4C74.4526 165.037 74.8633 164.76 75.3539 164.568C75.8446 164.365 76.3833 164.264 76.9699 164.264ZM91.4262 168.728C91.4262 168.76 91.4102 168.984 91.3782 169.4H84.8662C84.9835 169.933 85.2609 170.355 85.6982 170.664C86.1355 170.973 86.6795 171.128 87.3302 171.128C87.7782 171.128 88.1729 171.064 88.5142 170.936C88.8662 170.797 89.1915 170.584 89.4902 170.296L90.8182 171.736C90.0075 172.664 88.8235 173.128 87.2662 173.128C86.2955 173.128 85.4369 172.941 84.6902 172.568C83.9435 172.184 83.3675 171.656 82.9622 170.984C82.5569 170.312 82.3542 169.549 82.3542 168.696C82.3542 167.853 82.5515 167.096 82.9462 166.424C83.3515 165.741 83.9009 165.213 84.5942 164.84C85.2982 164.456 86.0822 164.264 86.9462 164.264C87.7889 164.264 88.5515 164.445 89.2342 164.808C89.9169 165.171 90.4502 165.693 90.8342 166.376C91.2289 167.048 91.4262 167.832 91.4262 168.728ZM86.9622 166.152C86.3969 166.152 85.9222 166.312 85.5382 166.632C85.1542 166.952 84.9195 167.389 84.8342 167.944H89.0742C88.9889 167.4 88.7542 166.968 88.3702 166.648C87.9862 166.317 87.5169 166.152 86.9622 166.152ZM96.0839 173.128C95.3693 173.128 94.6706 173.043 93.9879 172.872C93.3053 172.691 92.7613 172.467 92.3559 172.2L93.1879 170.408C93.5719 170.653 94.0359 170.856 94.5799 171.016C95.1239 171.165 95.6573 171.24 96.1799 171.24C97.2359 171.24 97.7639 170.979 97.7639 170.456C97.7639 170.211 97.6199 170.035 97.3319 169.928C97.0439 169.821 96.6013 169.731 96.0039 169.656C95.2999 169.549 94.7186 169.427 94.2599 169.288C93.8013 169.149 93.4013 168.904 93.0599 168.552C92.7293 168.2 92.5639 167.699 92.5639 167.048C92.5639 166.504 92.7186 166.024 93.0279 165.608C93.3479 165.181 93.8066 164.851 94.4039 164.616C95.0119 164.381 95.7266 164.264 96.5479 164.264C97.1559 164.264 97.7586 164.333 98.3559 164.472C98.9639 164.6 99.4653 164.781 99.8599 165.016L99.0279 166.792C98.2706 166.365 97.4439 166.152 96.5479 166.152C96.0146 166.152 95.6146 166.227 95.3479 166.376C95.0813 166.525 94.9479 166.717 94.9479 166.952C94.9479 167.219 95.0919 167.405 95.3799 167.512C95.6679 167.619 96.1266 167.72 96.7559 167.816C97.4599 167.933 98.0359 168.061 98.4839 168.2C98.9319 168.328 99.3213 168.568 99.6519 168.92C99.9826 169.272 100.148 169.763 100.148 170.392C100.148 170.925 99.9879 171.4 99.6679 171.816C99.3479 172.232 98.8786 172.557 98.2599 172.792C97.6519 173.016 96.9266 173.128 96.0839 173.128ZM104.684 173.128C103.969 173.128 103.271 173.043 102.588 172.872C101.905 172.691 101.361 172.467 100.956 172.2L101.788 170.408C102.172 170.653 102.636 170.856 103.18 171.016C103.724 171.165 104.257 171.24 104.78 171.24C105.836 171.24 106.364 170.979 106.364 170.456C106.364 170.211 106.22 170.035 105.932 169.928C105.644 169.821 105.201 169.731 104.604 169.656C103.9 169.549 103.319 169.427 102.86 169.288C102.401 169.149 102.001 168.904 101.66 168.552C101.329 168.2 101.164 167.699 101.164 167.048C101.164 166.504 101.319 166.024 101.628 165.608C101.948 165.181 102.407 164.851 103.004 164.616C103.612 164.381 104.327 164.264 105.148 164.264C105.756 164.264 106.359 164.333 106.956 164.472C107.564 164.6 108.065 164.781 108.46 165.016L107.628 166.792C106.871 166.365 106.044 166.152 105.148 166.152C104.615 166.152 104.215 166.227 103.948 166.376C103.681 166.525 103.548 166.717 103.548 166.952C103.548 167.219 103.692 167.405 103.98 167.512C104.268 167.619 104.727 167.72 105.356 167.816C106.06 167.933 106.636 168.061 107.084 168.2C107.532 168.328 107.921 168.568 108.252 168.92C108.583 169.272 108.748 169.763 108.748 170.392C108.748 170.925 108.588 171.4 108.268 171.816C107.948 172.232 107.479 172.557 106.86 172.792C106.252 173.016 105.527 173.128 104.684 173.128ZM123.803 173.192L122.459 171.944C121.393 172.776 120.145 173.192 118.715 173.192C117.905 173.192 117.174 173.064 116.523 172.808C115.873 172.541 115.361 172.173 114.987 171.704C114.625 171.235 114.443 170.707 114.443 170.12C114.443 169.427 114.635 168.819 115.019 168.296C115.414 167.763 116.043 167.256 116.907 166.776C116.502 166.36 116.209 165.965 116.027 165.592C115.846 165.208 115.755 164.813 115.755 164.408C115.755 163.864 115.899 163.384 116.187 162.968C116.475 162.552 116.881 162.232 117.403 162.008C117.937 161.773 118.55 161.656 119.243 161.656C120.214 161.656 120.993 161.891 121.579 162.36C122.166 162.819 122.459 163.443 122.459 164.232C122.459 164.808 122.283 165.32 121.931 165.768C121.59 166.216 121.035 166.648 120.267 167.064L122.315 168.968C122.561 168.456 122.747 167.875 122.875 167.224L124.875 167.848C124.662 168.84 124.321 169.688 123.851 170.392L125.163 171.608L123.803 173.192ZM119.243 163.352C118.87 163.352 118.571 163.448 118.347 163.64C118.134 163.832 118.027 164.077 118.027 164.376C118.027 164.6 118.086 164.813 118.203 165.016C118.321 165.208 118.55 165.469 118.891 165.8C119.435 165.512 119.814 165.256 120.027 165.032C120.241 164.797 120.347 164.547 120.347 164.28C120.347 164.003 120.251 163.779 120.059 163.608C119.867 163.437 119.595 163.352 119.243 163.352ZM118.891 171.24C119.67 171.24 120.369 171.021 120.987 170.584L118.283 168.056C117.782 168.344 117.425 168.627 117.211 168.904C116.998 169.181 116.891 169.496 116.891 169.848C116.891 170.264 117.073 170.6 117.435 170.856C117.798 171.112 118.283 171.24 118.891 171.24ZM134.159 163.88V166.84H139.343V168.92H134.159V173H131.567V161.8H140.031V163.88H134.159ZM141.554 164.392H144.05V173H141.554V164.392ZM142.802 163.192C142.343 163.192 141.97 163.059 141.682 162.792C141.394 162.525 141.25 162.195 141.25 161.8C141.25 161.405 141.394 161.075 141.682 160.808C141.97 160.541 142.343 160.408 142.802 160.408C143.26 160.408 143.634 160.536 143.922 160.792C144.21 161.048 144.354 161.368 144.354 161.752C144.354 162.168 144.21 162.515 143.922 162.792C143.634 163.059 143.26 163.192 142.802 163.192ZM151.698 164.264C152.765 164.264 153.623 164.584 154.274 165.224C154.935 165.864 155.266 166.813 155.266 168.072V173H152.77V168.456C152.77 167.773 152.621 167.267 152.322 166.936C152.023 166.595 151.591 166.424 151.026 166.424C150.397 166.424 149.895 166.621 149.522 167.016C149.149 167.4 148.962 167.976 148.962 168.744V173H146.466V164.392H148.85V165.4C149.181 165.037 149.591 164.76 150.082 164.568C150.573 164.365 151.111 164.264 151.698 164.264ZM161.101 164.264C162.434 164.264 163.458 164.584 164.173 165.224C164.887 165.853 165.245 166.808 165.245 168.088V173H162.909V171.928C162.439 172.728 161.565 173.128 160.285 173.128C159.623 173.128 159.047 173.016 158.557 172.792C158.077 172.568 157.709 172.259 157.453 171.864C157.197 171.469 157.069 171.021 157.069 170.52C157.069 169.72 157.367 169.091 157.965 168.632C158.573 168.173 159.506 167.944 160.765 167.944H162.749C162.749 167.4 162.583 166.984 162.253 166.696C161.922 166.397 161.426 166.248 160.765 166.248C160.306 166.248 159.853 166.323 159.405 166.472C158.967 166.611 158.594 166.803 158.285 167.048L157.389 165.304C157.858 164.973 158.418 164.717 159.069 164.536C159.73 164.355 160.407 164.264 161.101 164.264ZM160.909 171.448C161.335 171.448 161.714 171.352 162.045 171.16C162.375 170.957 162.61 170.664 162.749 170.28V169.4H161.037C160.013 169.4 159.501 169.736 159.501 170.408C159.501 170.728 159.623 170.984 159.869 171.176C160.125 171.357 160.471 171.448 160.909 171.448ZM172.836 164.264C173.902 164.264 174.761 164.584 175.412 165.224C176.073 165.864 176.404 166.813 176.404 168.072V173H173.908V168.456C173.908 167.773 173.758 167.267 173.46 166.936C173.161 166.595 172.729 166.424 172.164 166.424C171.534 166.424 171.033 166.621 170.66 167.016C170.286 167.4 170.1 167.976 170.1 168.744V173H167.604V164.392H169.988V165.4C170.318 165.037 170.729 164.76 171.22 164.568C171.71 164.365 172.249 164.264 172.836 164.264ZM183.02 173.128C182.102 173.128 181.276 172.941 180.54 172.568C179.814 172.184 179.244 171.656 178.828 170.984C178.422 170.312 178.22 169.549 178.22 168.696C178.22 167.843 178.422 167.08 178.828 166.408C179.244 165.736 179.814 165.213 180.54 164.84C181.276 164.456 182.102 164.264 183.02 164.264C183.926 164.264 184.716 164.456 185.388 164.84C186.07 165.213 186.566 165.752 186.876 166.456L184.94 167.496C184.492 166.707 183.846 166.312 183.004 166.312C182.353 166.312 181.814 166.525 181.388 166.952C180.961 167.379 180.748 167.96 180.748 168.696C180.748 169.432 180.961 170.013 181.388 170.44C181.814 170.867 182.353 171.08 183.004 171.08C183.857 171.08 184.502 170.685 184.94 169.896L186.876 170.952C186.566 171.635 186.07 172.168 185.388 172.552C184.716 172.936 183.926 173.128 183.02 173.128ZM196.736 168.728C196.736 168.76 196.72 168.984 196.688 169.4H190.176C190.293 169.933 190.57 170.355 191.008 170.664C191.445 170.973 191.989 171.128 192.64 171.128C193.088 171.128 193.482 171.064 193.824 170.936C194.176 170.797 194.501 170.584 194.8 170.296L196.128 171.736C195.317 172.664 194.133 173.128 192.576 173.128C191.605 173.128 190.746 172.941 190 172.568C189.253 172.184 188.677 171.656 188.272 170.984C187.866 170.312 187.664 169.549 187.664 168.696C187.664 167.853 187.861 167.096 188.256 166.424C188.661 165.741 189.21 165.213 189.904 164.84C190.608 164.456 191.392 164.264 192.256 164.264C193.098 164.264 193.861 164.445 194.544 164.808C195.226 165.171 195.76 165.693 196.144 166.376C196.538 167.048 196.736 167.832 196.736 168.728ZM192.272 166.152C191.706 166.152 191.232 166.312 190.848 166.632C190.464 166.952 190.229 167.389 190.144 167.944H194.384C194.298 167.4 194.064 166.968 193.68 166.648C193.296 166.317 192.826 166.152 192.272 166.152Z" fill="#737373"/>
<defs>
<clipPath id="clip0_965_140">
<rect width="48" height="48" fill="white" transform="translate(91.5 30)"/>
</clipPath>
<clipPath id="clip1_965_140">
<rect width="48" height="40.7089" fill="white" transform="translate(92 34)"/>
</clipPath>
</defs>
</svg>
