<svg width="231" height="209" viewBox="0 0 231 209" fill="none" xmlns="http://www.w3.org/2000/svg">
<rect width="230" height="209" transform="translate(0.5)" fill="white"/>
<g clip-path="url(#clip0_965_119)">
<g clip-path="url(#clip1_965_119)">
<path d="M115.841 52.8025C120.145 52.8025 123.493 49.3071 123.493 45.0173C123.493 40.7276 119.985 37.3911 115.681 37.3911C111.377 37.3911 108.029 40.8865 108.029 45.0173C108.029 49.3071 111.536 52.8025 115.841 52.8025ZM115.681 40.5687C115.841 40.5687 115.841 40.5687 115.681 40.5687C118.232 40.5687 120.304 42.6342 120.304 45.1762C120.304 47.7183 118.232 49.6249 115.681 49.6249C113.131 49.6249 111.218 47.5594 111.218 45.1762C111.218 42.6342 113.29 40.5687 115.681 40.5687V40.5687Z" fill="#0D5C63"/>
<path d="M139.434 51.8487C136.405 49.1477 132.419 47.7178 128.275 47.8767H126.999C126.68 49.1477 126.202 50.2599 125.564 51.2132C126.521 51.0543 127.318 51.0543 128.275 51.0543C131.303 50.8954 134.332 51.8487 136.723 53.5964V65.0357H139.912V52.3253L139.434 51.8487Z" fill="#0D5C63"/>
<path d="M124.609 37.7083C125.406 35.8017 127.638 34.8484 129.71 35.6428C131.623 36.4372 132.579 38.6615 131.782 40.727C131.145 42.1569 129.71 43.1102 128.275 43.1102C127.956 43.1102 127.478 43.1102 127.159 42.9513C127.319 43.7457 127.319 44.5401 127.319 45.1756V46.1289C127.638 46.1289 127.956 46.2878 128.275 46.2878C132.261 46.2878 135.449 43.1102 135.449 39.2971C135.449 35.3251 132.261 32.1475 128.435 32.1475C125.884 32.1475 123.652 33.4185 122.377 35.6428C123.174 36.1195 123.971 36.755 124.609 37.7083V37.7083Z" fill="#0D5C63"/>
<path d="M106.435 51.3724C105.798 50.4191 105.319 49.3069 105 48.0359H103.725C99.5804 47.877 95.595 49.3069 92.5661 51.849L92.0879 52.3257V65.0361H95.2762V53.5967C97.8268 51.849 100.696 50.8957 103.725 51.0546C104.682 51.0546 105.638 51.2135 106.435 51.3724Z" fill="#0D5C63"/>
<path d="M103.725 46.1295C104.043 46.1295 104.362 46.1295 104.681 45.9706V45.0174C104.681 44.223 104.681 43.4286 104.841 42.793C104.522 42.9519 104.043 42.9519 103.725 42.9519C101.652 42.9519 99.8987 41.2042 99.8987 39.1388C99.8987 37.0734 101.652 35.3257 103.725 35.3257C105.319 35.3257 106.754 36.279 107.391 37.7089C108.029 36.9145 108.985 36.1201 109.782 35.4846C107.71 32.1481 103.406 31.0359 100.058 33.1014C96.7104 35.1668 95.5945 39.4566 97.6669 42.793C98.9422 44.8585 101.174 46.1295 103.725 46.1295V46.1295Z" fill="#0D5C63"/>
<path d="M128.913 61.3817L128.594 60.9051C125.406 57.4097 120.942 55.3443 116.16 55.5032C111.377 55.3443 106.754 57.4097 103.566 60.9051L103.247 61.3817V73.4566C103.247 74.8865 104.363 76.1576 105.957 76.1576H126.362C127.797 76.1576 129.072 74.8865 129.072 73.4566V61.3817H128.913ZM125.725 72.98H106.435V62.4939C108.986 59.9518 112.493 58.6808 116.16 58.6808C119.667 58.5219 123.174 59.9518 125.725 62.4939V72.98Z" fill="#0D5C63"/>
</g>
</g>
<path d="M72.5 125.96C74.2333 125.96 75.5667 125.387 76.5 124.24C77.46 123.067 78.0467 121.48 78.26 119.48C76.5533 120.627 74.7133 121.2 72.74 121.2C70.1267 121.2 67.94 120.347 66.18 118.64C64.4467 116.907 63.58 114.627 63.58 111.8C63.58 108.973 64.5133 106.707 66.38 105C68.2733 103.267 70.6467 102.4 73.5 102.4C75.4733 102.4 77.18 102.787 78.62 103.56C80.0867 104.307 81.2333 105.36 82.06 106.72C83.6333 109.36 84.42 112.667 84.42 116.64C84.42 119.2 84.1 121.453 83.46 123.4C82.8467 125.32 82.0067 126.84 80.94 127.96C78.7533 130.2 76.1 131.32 72.98 131.32C71.6733 131.32 70.42 131.133 69.22 130.76C68.02 130.36 67.1133 129.973 66.5 129.6C65.8867 129.2 65.18 128.693 64.38 128.08L67.5 123.68C67.6867 123.84 67.9267 124.053 68.22 124.32C68.54 124.56 69.14 124.893 70.02 125.32C70.9 125.747 71.7267 125.96 72.5 125.96ZM73.34 115.88C74.5933 115.88 75.6333 115.52 76.46 114.8C77.2867 114.08 77.7 113.133 77.7 111.96C77.7 110.787 77.3 109.773 76.5 108.92C75.7 108.067 74.7 107.64 73.5 107.64C72.3 107.64 71.3133 108.027 70.54 108.8C69.7933 109.547 69.42 110.507 69.42 111.68C69.42 112.853 69.7667 113.853 70.46 114.68C71.1533 115.48 72.1133 115.88 73.34 115.88ZM88.7363 112V103.04H108.936V107.76L97.6163 131H90.8163L101.616 108.4H94.5763V112H88.7363ZM120.74 117.96C122.394 116.28 123.567 114.947 124.26 113.96C124.98 112.947 125.34 111.973 125.34 111.04C125.34 110.107 125.034 109.333 124.42 108.72C123.807 108.08 123.02 107.76 122.06 107.76C120.3 107.76 118.634 109.013 117.06 111.52L112.06 108.56C113.367 106.533 114.794 105 116.34 103.96C117.914 102.92 119.9 102.4 122.3 102.4C124.727 102.4 126.847 103.173 128.66 104.72C130.5 106.24 131.42 108.32 131.42 110.96C131.42 112.4 131.047 113.787 130.3 115.12C129.58 116.427 128.234 118.107 126.26 120.16L121.22 125.4H132.26V131H112.54V126.36L120.74 117.96ZM154.306 126.64V119.44H147.306V114.52H154.306V107.32H159.826V114.52H166.826V119.44H159.826V126.64H154.306Z" fill="#252B42"/>
<path d="M37.963 173.192C36.8217 173.192 35.787 172.947 34.859 172.456C33.9417 171.955 33.2163 171.267 32.683 170.392C32.1603 169.507 31.899 168.509 31.899 167.4C31.899 166.291 32.1603 165.299 32.683 164.424C33.2163 163.539 33.9417 162.851 34.859 162.36C35.787 161.859 36.827 161.608 37.979 161.608C38.9497 161.608 39.8243 161.779 40.603 162.12C41.3923 162.461 42.0537 162.952 42.587 163.592L40.923 165.128C40.1657 164.253 39.227 163.816 38.107 163.816C37.4137 163.816 36.795 163.971 36.251 164.28C35.707 164.579 35.2803 165 34.971 165.544C34.6723 166.088 34.523 166.707 34.523 167.4C34.523 168.093 34.6723 168.712 34.971 169.256C35.2803 169.8 35.707 170.227 36.251 170.536C36.795 170.835 37.4137 170.984 38.107 170.984C39.227 170.984 40.1657 170.541 40.923 169.656L42.587 171.192C42.0537 171.843 41.3923 172.339 40.603 172.68C39.8137 173.021 38.9337 173.192 37.963 173.192ZM48.0605 173.128C47.1538 173.128 46.3378 172.941 45.6125 172.568C44.8978 172.184 44.3378 171.656 43.9325 170.984C43.5272 170.312 43.3245 169.549 43.3245 168.696C43.3245 167.843 43.5272 167.08 43.9325 166.408C44.3378 165.736 44.8978 165.213 45.6125 164.84C46.3378 164.456 47.1538 164.264 48.0605 164.264C48.9672 164.264 49.7778 164.456 50.4925 164.84C51.2072 165.213 51.7672 165.736 52.1725 166.408C52.5778 167.08 52.7805 167.843 52.7805 168.696C52.7805 169.549 52.5778 170.312 52.1725 170.984C51.7672 171.656 51.2072 172.184 50.4925 172.568C49.7778 172.941 48.9672 173.128 48.0605 173.128ZM48.0605 171.08C48.7005 171.08 49.2232 170.867 49.6285 170.44C50.0445 170.003 50.2525 169.421 50.2525 168.696C50.2525 167.971 50.0445 167.395 49.6285 166.968C49.2232 166.531 48.7005 166.312 48.0605 166.312C47.4205 166.312 46.8925 166.531 46.4765 166.968C46.0605 167.395 45.8525 167.971 45.8525 168.696C45.8525 169.421 46.0605 170.003 46.4765 170.44C46.8925 170.867 47.4205 171.08 48.0605 171.08ZM59.7809 164.264C60.8475 164.264 61.7062 164.584 62.3569 165.224C63.0182 165.864 63.3489 166.813 63.3489 168.072V173H60.8529V168.456C60.8529 167.773 60.7035 167.267 60.4049 166.936C60.1062 166.595 59.6742 166.424 59.1089 166.424C58.4795 166.424 57.9782 166.621 57.6049 167.016C57.2315 167.4 57.0449 167.976 57.0449 168.744V173H54.5489V164.392H56.9329V165.4C57.2635 165.037 57.6742 164.76 58.1649 164.568C58.6555 164.365 59.1942 164.264 59.7809 164.264ZM68.6074 173.128C67.8927 173.128 67.194 173.043 66.5114 172.872C65.8287 172.691 65.2847 172.467 64.8794 172.2L65.7114 170.408C66.0954 170.653 66.5594 170.856 67.1034 171.016C67.6474 171.165 68.1807 171.24 68.7034 171.24C69.7594 171.24 70.2874 170.979 70.2874 170.456C70.2874 170.211 70.1434 170.035 69.8554 169.928C69.5674 169.821 69.1247 169.731 68.5274 169.656C67.8234 169.549 67.242 169.427 66.7834 169.288C66.3247 169.149 65.9247 168.904 65.5834 168.552C65.2527 168.2 65.0874 167.699 65.0874 167.048C65.0874 166.504 65.242 166.024 65.5514 165.608C65.8714 165.181 66.33 164.851 66.9274 164.616C67.5354 164.381 68.25 164.264 69.0714 164.264C69.6794 164.264 70.282 164.333 70.8794 164.472C71.4874 164.6 71.9887 164.781 72.3834 165.016L71.5514 166.792C70.794 166.365 69.9674 166.152 69.0714 166.152C68.538 166.152 68.138 166.227 67.8714 166.376C67.6047 166.525 67.4714 166.717 67.4714 166.952C67.4714 167.219 67.6154 167.405 67.9034 167.512C68.1914 167.619 68.65 167.72 69.2794 167.816C69.9834 167.933 70.5594 168.061 71.0074 168.2C71.4554 168.328 71.8447 168.568 72.1754 168.92C72.506 169.272 72.6714 169.763 72.6714 170.392C72.6714 170.925 72.5114 171.4 72.1914 171.816C71.8714 172.232 71.402 172.557 70.7834 172.792C70.1754 173.016 69.45 173.128 68.6074 173.128ZM82.9834 164.392V173H80.6154V171.976C80.2847 172.349 79.89 172.637 79.4314 172.84C78.9727 173.032 78.4767 173.128 77.9434 173.128C76.8127 173.128 75.9167 172.803 75.2554 172.152C74.594 171.501 74.2634 170.536 74.2634 169.256V164.392H76.7594V168.888C76.7594 170.275 77.3407 170.968 78.5034 170.968C79.1007 170.968 79.5807 170.776 79.9434 170.392C80.306 169.997 80.4874 169.416 80.4874 168.648V164.392H82.9834ZM96.4198 164.264C97.4971 164.264 98.3504 164.584 98.9798 165.224C99.6198 165.853 99.9398 166.803 99.9398 168.072V173H97.4438V168.456C97.4438 167.773 97.2998 167.267 97.0118 166.936C96.7344 166.595 96.3344 166.424 95.8118 166.424C95.2251 166.424 94.7611 166.616 94.4198 167C94.0784 167.373 93.9078 167.933 93.9078 168.68V173H91.4118V168.456C91.4118 167.101 90.8678 166.424 89.7798 166.424C89.2038 166.424 88.7451 166.616 88.4038 167C88.0624 167.373 87.8918 167.933 87.8918 168.68V173H85.3958V164.392H87.7798V165.384C88.0998 165.021 88.4891 164.744 88.9478 164.552C89.4171 164.36 89.9291 164.264 90.4838 164.264C91.0918 164.264 91.6411 164.387 92.1318 164.632C92.6224 164.867 93.0171 165.213 93.3158 165.672C93.6678 165.224 94.1104 164.877 94.6438 164.632C95.1878 164.387 95.7798 164.264 96.4198 164.264ZM110.803 168.728C110.803 168.76 110.787 168.984 110.755 169.4H104.243C104.36 169.933 104.637 170.355 105.075 170.664C105.512 170.973 106.056 171.128 106.707 171.128C107.155 171.128 107.549 171.064 107.891 170.936C108.243 170.797 108.568 170.584 108.867 170.296L110.195 171.736C109.384 172.664 108.2 173.128 106.643 173.128C105.672 173.128 104.813 172.941 104.067 172.568C103.32 172.184 102.744 171.656 102.339 170.984C101.933 170.312 101.731 169.549 101.731 168.696C101.731 167.853 101.928 167.096 102.323 166.424C102.728 165.741 103.277 165.213 103.971 164.84C104.675 164.456 105.459 164.264 106.323 164.264C107.165 164.264 107.928 164.445 108.611 164.808C109.293 165.171 109.827 165.693 110.211 166.376C110.605 167.048 110.803 167.832 110.803 168.728ZM106.339 166.152C105.773 166.152 105.299 166.312 104.915 166.632C104.531 166.952 104.296 167.389 104.211 167.944H108.451C108.365 167.4 108.131 166.968 107.747 166.648C107.363 166.317 106.893 166.152 106.339 166.152ZM114.948 165.528C115.247 165.112 115.647 164.797 116.148 164.584C116.66 164.371 117.247 164.264 117.908 164.264V166.568C117.631 166.547 117.444 166.536 117.348 166.536C116.634 166.536 116.074 166.739 115.668 167.144C115.263 167.539 115.06 168.136 115.06 168.936V173H112.564V164.392H114.948V165.528ZM129.21 161.8C130.202 161.8 131.061 161.965 131.786 162.296C132.522 162.627 133.088 163.096 133.482 163.704C133.877 164.312 134.074 165.032 134.074 165.864C134.074 166.685 133.877 167.405 133.482 168.024C133.088 168.632 132.522 169.101 131.786 169.432C131.061 169.752 130.202 169.912 129.21 169.912H126.954V173H124.362V161.8H129.21ZM129.066 167.8C129.845 167.8 130.437 167.635 130.842 167.304C131.248 166.963 131.45 166.483 131.45 165.864C131.45 165.235 131.248 164.755 130.842 164.424C130.437 164.083 129.845 163.912 129.066 163.912H126.954V167.8H129.066ZM138.233 165.528C138.532 165.112 138.932 164.797 139.433 164.584C139.945 164.371 140.532 164.264 141.193 164.264V166.568C140.916 166.547 140.729 166.536 140.633 166.536C139.918 166.536 139.358 166.739 138.953 167.144C138.548 167.539 138.345 168.136 138.345 168.936V173H135.849V164.392H138.233V165.528ZM146.795 173.128C145.888 173.128 145.072 172.941 144.347 172.568C143.632 172.184 143.072 171.656 142.667 170.984C142.262 170.312 142.059 169.549 142.059 168.696C142.059 167.843 142.262 167.08 142.667 166.408C143.072 165.736 143.632 165.213 144.347 164.84C145.072 164.456 145.888 164.264 146.795 164.264C147.702 164.264 148.512 164.456 149.227 164.84C149.942 165.213 150.502 165.736 150.907 166.408C151.312 167.08 151.515 167.843 151.515 168.696C151.515 169.549 151.312 170.312 150.907 170.984C150.502 171.656 149.942 172.184 149.227 172.568C148.512 172.941 147.702 173.128 146.795 173.128ZM146.795 171.08C147.435 171.08 147.958 170.867 148.363 170.44C148.779 170.003 148.987 169.421 148.987 168.696C148.987 167.971 148.779 167.395 148.363 166.968C147.958 166.531 147.435 166.312 146.795 166.312C146.155 166.312 145.627 166.531 145.211 166.968C144.795 167.395 144.587 167.971 144.587 168.696C144.587 169.421 144.795 170.003 145.211 170.44C145.627 170.867 146.155 171.08 146.795 171.08ZM162.051 161.128V173H159.667V172.008C159.049 172.755 158.153 173.128 156.979 173.128C156.169 173.128 155.433 172.947 154.771 172.584C154.121 172.221 153.609 171.704 153.235 171.032C152.862 170.36 152.675 169.581 152.675 168.696C152.675 167.811 152.862 167.032 153.235 166.36C153.609 165.688 154.121 165.171 154.771 164.808C155.433 164.445 156.169 164.264 156.979 164.264C158.078 164.264 158.937 164.611 159.555 165.304V161.128H162.051ZM157.411 171.08C158.041 171.08 158.563 170.867 158.979 170.44C159.395 170.003 159.603 169.421 159.603 168.696C159.603 167.971 159.395 167.395 158.979 166.968C158.563 166.531 158.041 166.312 157.411 166.312C156.771 166.312 156.243 166.531 155.827 166.968C155.411 167.395 155.203 167.971 155.203 168.696C155.203 169.421 155.411 170.003 155.827 170.44C156.243 170.867 156.771 171.08 157.411 171.08ZM173.133 164.392V173H170.765V171.976C170.435 172.349 170.04 172.637 169.581 172.84C169.123 173.032 168.627 173.128 168.093 173.128C166.963 173.128 166.067 172.803 165.405 172.152C164.744 171.501 164.413 170.536 164.413 169.256V164.392H166.909V168.888C166.909 170.275 167.491 170.968 168.653 170.968C169.251 170.968 169.731 170.776 170.093 170.392C170.456 169.997 170.637 169.416 170.637 168.648V164.392H173.133ZM179.706 173.128C178.788 173.128 177.962 172.941 177.226 172.568C176.5 172.184 175.93 171.656 175.514 170.984C175.108 170.312 174.906 169.549 174.906 168.696C174.906 167.843 175.108 167.08 175.514 166.408C175.93 165.736 176.5 165.213 177.226 164.84C177.962 164.456 178.788 164.264 179.706 164.264C180.612 164.264 181.402 164.456 182.074 164.84C182.756 165.213 183.252 165.752 183.562 166.456L181.626 167.496C181.178 166.707 180.532 166.312 179.69 166.312C179.039 166.312 178.5 166.525 178.074 166.952C177.647 167.379 177.434 167.96 177.434 168.696C177.434 169.432 177.647 170.013 178.074 170.44C178.5 170.867 179.039 171.08 179.69 171.08C180.543 171.08 181.188 170.685 181.626 169.896L183.562 170.952C183.252 171.635 182.756 172.168 182.074 172.552C181.402 172.936 180.612 173.128 179.706 173.128ZM190.776 172.584C190.531 172.765 190.227 172.904 189.864 173C189.512 173.085 189.139 173.128 188.744 173.128C187.72 173.128 186.925 172.867 186.36 172.344C185.805 171.821 185.528 171.053 185.528 170.04V166.504H184.2V164.584H185.528V162.488H188.024V164.584H190.168V166.504H188.024V170.008C188.024 170.371 188.115 170.653 188.296 170.856C188.488 171.048 188.755 171.144 189.096 171.144C189.491 171.144 189.827 171.037 190.104 170.824L190.776 172.584ZM195.173 173.128C194.458 173.128 193.76 173.043 193.077 172.872C192.394 172.691 191.85 172.467 191.445 172.2L192.277 170.408C192.661 170.653 193.125 170.856 193.669 171.016C194.213 171.165 194.746 171.24 195.269 171.24C196.325 171.24 196.853 170.979 196.853 170.456C196.853 170.211 196.709 170.035 196.421 169.928C196.133 169.821 195.69 169.731 195.093 169.656C194.389 169.549 193.808 169.427 193.349 169.288C192.89 169.149 192.49 168.904 192.149 168.552C191.818 168.2 191.653 167.699 191.653 167.048C191.653 166.504 191.808 166.024 192.117 165.608C192.437 165.181 192.896 164.851 193.493 164.616C194.101 164.381 194.816 164.264 195.637 164.264C196.245 164.264 196.848 164.333 197.445 164.472C198.053 164.6 198.554 164.781 198.949 165.016L198.117 166.792C197.36 166.365 196.533 166.152 195.637 166.152C195.104 166.152 194.704 166.227 194.437 166.376C194.17 166.525 194.037 166.717 194.037 166.952C194.037 167.219 194.181 167.405 194.469 167.512C194.757 167.619 195.216 167.72 195.845 167.816C196.549 167.933 197.125 168.061 197.573 168.2C198.021 168.328 198.41 168.568 198.741 168.92C199.072 169.272 199.237 169.763 199.237 170.392C199.237 170.925 199.077 171.4 198.757 171.816C198.437 172.232 197.968 172.557 197.349 172.792C196.741 173.016 196.016 173.128 195.173 173.128Z" fill="#737373"/>
<defs>
<clipPath id="clip0_965_119">
<rect width="48" height="48" fill="white" transform="translate(91.5 30)"/>
</clipPath>
<clipPath id="clip1_965_119">
<rect width="48" height="44.2105" fill="white" transform="translate(92 32)"/>
</clipPath>
</defs>
</svg>
