<svg width="330" height="77" viewBox="0 0 330 77" fill="none" xmlns="http://www.w3.org/2000/svg">
<g clip-path="url(#clip0_964_17541)">
<g clip-path="url(#clip1_964_17541)">
<path d="M29.8154 10.3646L27.8167 13.3708C28.7806 15.2933 29.2525 17.4249 29.1901 19.5746C29.1277 21.7243 28.5329 23.825 27.4592 25.6883H4.93666C3.54106 23.2672 2.96277 20.4609 3.28751 17.6853C3.61226 14.9097 4.82277 12.3126 6.73956 10.2791C8.65636 8.2456 11.1774 6.88388 13.929 6.39581C16.6806 5.90775 19.5162 6.31934 22.0154 7.56956L25.0217 5.57081C21.9609 3.60816 18.3304 2.72869 14.7109 3.07308C11.0913 3.41747 7.69176 4.96581 5.05609 7.47045C2.42042 9.97509 0.700875 13.2913 0.172515 16.8886C-0.355844 20.486 0.337506 24.1566 2.14166 27.3133C2.42524 27.8045 2.83243 28.2129 3.32276 28.498C3.81309 28.7831 4.36949 28.9349 4.93666 28.9383H27.4429C28.0156 28.9406 28.5787 28.7915 29.0752 28.5061C29.5718 28.2208 29.9841 27.8093 30.2704 27.3133C31.7676 24.7197 32.519 21.7627 32.4416 18.769C32.3642 15.7752 31.461 12.8611 29.8317 10.3483L29.8154 10.3646ZM13.9067 21.4796C14.2085 21.7817 14.5669 22.0214 14.9615 22.185C15.356 22.3486 15.7789 22.4327 16.206 22.4327C16.6331 22.4327 17.056 22.3486 17.4506 22.185C17.8451 22.0214 18.2036 21.7817 18.5054 21.4796L27.7029 7.68331L13.9067 16.8808C13.6045 17.1826 13.3648 17.5411 13.2012 17.9356C13.0377 18.3302 12.9535 18.7531 12.9535 19.1802C12.9535 19.6073 13.0377 20.0302 13.2012 20.4247C13.3648 20.8193 13.6045 21.1777 13.9067 21.4796Z" fill="#FF7B47"/>
</g>
<path d="M58.704 17.584C58.4587 17.7653 58.1547 17.904 57.792 18C57.44 18.0853 57.0667 18.128 56.672 18.128C55.648 18.128 54.8533 17.8667 54.288 17.344C53.7333 16.8213 53.456 16.0533 53.456 15.04V11.504H52.128V9.584H53.456V7.488H55.952V9.584H58.096V11.504H55.952V15.008C55.952 15.3707 56.0427 15.6533 56.224 15.856C56.416 16.048 56.6827 16.144 57.024 16.144C57.4187 16.144 57.7547 16.0373 58.032 15.824L58.704 17.584ZM65.4371 9.264C66.5038 9.264 67.3625 9.584 68.0131 10.224C68.6745 10.864 69.0051 11.8133 69.0051 13.072V18H66.5091V13.456C66.5091 12.7733 66.3598 12.2667 66.0611 11.936C65.7625 11.5947 65.3305 11.424 64.7651 11.424C64.1358 11.424 63.6345 11.6213 63.2611 12.016C62.8878 12.4 62.7011 12.976 62.7011 13.744V18H60.2051V6.128H62.7011V10.288C63.0318 9.95733 63.4318 9.70667 63.9011 9.536C64.3705 9.35467 64.8825 9.264 65.4371 9.264ZM79.8934 13.728C79.8934 13.76 79.8774 13.984 79.8454 14.4H73.3334C73.4507 14.9333 73.728 15.3547 74.1654 15.664C74.6027 15.9733 75.1467 16.128 75.7974 16.128C76.2454 16.128 76.64 16.064 76.9814 15.936C77.3334 15.7973 77.6587 15.584 77.9574 15.296L79.2854 16.736C78.4747 17.664 77.2907 18.128 75.7334 18.128C74.7627 18.128 73.904 17.9413 73.1574 17.568C72.4107 17.184 71.8347 16.656 71.4294 15.984C71.024 15.312 70.8214 14.5493 70.8214 13.696C70.8214 12.8533 71.0187 12.096 71.4134 11.424C71.8187 10.7413 72.368 10.2133 73.0614 9.84C73.7654 9.456 74.5494 9.264 75.4134 9.264C76.256 9.264 77.0187 9.44533 77.7014 9.808C78.384 10.1707 78.9174 10.6933 79.3014 11.376C79.696 12.048 79.8934 12.832 79.8934 13.728ZM75.4294 11.152C74.864 11.152 74.3894 11.312 74.0054 11.632C73.6214 11.952 73.3867 12.3893 73.3014 12.944H77.5414C77.456 12.4 77.2214 11.968 76.8374 11.648C76.4534 11.3173 75.984 11.152 75.4294 11.152ZM95.0224 9.392V21.104H92.5264V17.088C91.9077 17.7813 91.049 18.128 89.9504 18.128C89.1397 18.128 88.4037 17.9467 87.7424 17.584C87.0917 17.2213 86.5797 16.704 86.2064 16.032C85.833 15.36 85.6464 14.5813 85.6464 13.696C85.6464 12.8107 85.833 12.032 86.2064 11.36C86.5797 10.688 87.0917 10.1707 87.7424 9.808C88.4037 9.44533 89.1397 9.264 89.9504 9.264C91.1237 9.264 92.0197 9.63733 92.6384 10.384V9.392H95.0224ZM90.3824 16.08C91.0117 16.08 91.5344 15.8667 91.9504 15.44C92.3664 15.0027 92.5744 14.4213 92.5744 13.696C92.5744 12.9707 92.3664 12.3947 91.9504 11.968C91.5344 11.5307 91.0117 11.312 90.3824 11.312C89.7424 11.312 89.2144 11.5307 88.7984 11.968C88.3824 12.3947 88.1744 12.9707 88.1744 13.696C88.1744 14.4213 88.3824 15.0027 88.7984 15.44C89.2144 15.8667 89.7424 16.08 90.3824 16.08ZM106.105 9.392V18H103.737V16.976C103.407 17.3493 103.012 17.6373 102.553 17.84C102.095 18.032 101.599 18.128 101.065 18.128C99.9346 18.128 99.0386 17.8027 98.3773 17.152C97.7159 16.5013 97.3853 15.536 97.3853 14.256V9.392H99.8813V13.888C99.8813 15.2747 100.463 15.968 101.625 15.968C102.223 15.968 102.703 15.776 103.065 15.392C103.428 14.9973 103.609 14.416 103.609 13.648V9.392H106.105ZM108.518 9.392H111.014V18H108.518V9.392ZM109.766 8.192C109.307 8.192 108.934 8.05867 108.646 7.792C108.358 7.52533 108.214 7.19467 108.214 6.8C108.214 6.40533 108.358 6.07467 108.646 5.808C108.934 5.54133 109.307 5.408 109.766 5.408C110.224 5.408 110.598 5.536 110.886 5.792C111.174 6.048 111.318 6.368 111.318 6.752C111.318 7.168 111.174 7.51467 110.886 7.792C110.598 8.05867 110.224 8.192 109.766 8.192ZM117.59 18.128C116.673 18.128 115.846 17.9413 115.11 17.568C114.385 17.184 113.814 16.656 113.398 15.984C112.993 15.312 112.79 14.5493 112.79 13.696C112.79 12.8427 112.993 12.08 113.398 11.408C113.814 10.736 114.385 10.2133 115.11 9.84C115.846 9.456 116.673 9.264 117.59 9.264C118.497 9.264 119.286 9.456 119.958 9.84C120.641 10.2133 121.137 10.752 121.446 11.456L119.51 12.496C119.062 11.7067 118.417 11.312 117.574 11.312C116.923 11.312 116.385 11.5253 115.958 11.952C115.531 12.3787 115.318 12.96 115.318 13.696C115.318 14.432 115.531 15.0133 115.958 15.44C116.385 15.8667 116.923 16.08 117.574 16.08C118.427 16.08 119.073 15.6853 119.51 14.896L121.446 15.952C121.137 16.6347 120.641 17.168 119.958 17.552C119.286 17.936 118.497 18.128 117.59 18.128ZM126.617 14.624L125.417 15.808V18H122.921V6.128H125.417V12.848L129.065 9.392H132.041L128.457 13.04L132.361 18H129.337L126.617 14.624ZM140.951 9.584H143.159V11.504H141.015V18H138.519V11.504H137.191V9.584H138.519V9.2C138.519 8.21867 138.807 7.44 139.383 6.864C139.969 6.288 140.791 6 141.847 6C142.22 6 142.572 6.04267 142.903 6.128C143.244 6.20267 143.527 6.31467 143.751 6.464L143.095 8.272C142.807 8.06933 142.471 7.968 142.087 7.968C141.329 7.968 140.951 8.384 140.951 9.216V9.584ZM148.489 18.128C147.582 18.128 146.766 17.9413 146.041 17.568C145.326 17.184 144.766 16.656 144.361 15.984C143.955 15.312 143.753 14.5493 143.753 13.696C143.753 12.8427 143.955 12.08 144.361 11.408C144.766 10.736 145.326 10.2133 146.041 9.84C146.766 9.456 147.582 9.264 148.489 9.264C149.395 9.264 150.206 9.456 150.921 9.84C151.635 10.2133 152.195 10.736 152.601 11.408C153.006 12.08 153.209 12.8427 153.209 13.696C153.209 14.5493 153.006 15.312 152.601 15.984C152.195 16.656 151.635 17.184 150.921 17.568C150.206 17.9413 149.395 18.128 148.489 18.128ZM148.489 16.08C149.129 16.08 149.651 15.8667 150.057 15.44C150.473 15.0027 150.681 14.4213 150.681 13.696C150.681 12.9707 150.473 12.3947 150.057 11.968C149.651 11.5307 149.129 11.312 148.489 11.312C147.849 11.312 147.321 11.5307 146.905 11.968C146.489 12.3947 146.281 12.9707 146.281 13.696C146.281 14.4213 146.489 15.0027 146.905 15.44C147.321 15.8667 147.849 16.08 148.489 16.08ZM160.183 18L158.295 15.36L156.343 18H153.623L156.935 13.664L153.735 9.392H156.535L158.359 11.904L160.231 9.392H162.887L159.687 13.6L163.015 18H160.183ZM168.318 21.232C167.444 21.232 166.777 21.072 166.318 20.752L166.99 18.944C167.278 19.1467 167.63 19.248 168.046 19.248C168.366 19.248 168.617 19.1413 168.798 18.928C168.98 18.7253 169.07 18.416 169.07 18V9.392H171.566V17.984C171.566 18.9867 171.278 19.776 170.702 20.352C170.137 20.9387 169.342 21.232 168.318 21.232ZM170.318 8.192C169.86 8.192 169.486 8.05867 169.198 7.792C168.91 7.52533 168.766 7.19467 168.766 6.8C168.766 6.40533 168.91 6.07467 169.198 5.808C169.486 5.54133 169.86 5.408 170.318 5.408C170.777 5.408 171.15 5.536 171.438 5.792C171.726 6.048 171.87 6.368 171.87 6.752C171.87 7.168 171.726 7.51467 171.438 7.792C171.15 8.05867 170.777 8.192 170.318 8.192ZM182.637 9.392V18H180.269V16.976C179.938 17.3493 179.543 17.6373 179.085 17.84C178.626 18.032 178.13 18.128 177.597 18.128C176.466 18.128 175.57 17.8027 174.909 17.152C174.247 16.5013 173.917 15.536 173.917 14.256V9.392H176.413V13.888C176.413 15.2747 176.994 15.968 178.157 15.968C178.754 15.968 179.234 15.776 179.597 15.392C179.959 14.9973 180.141 14.416 180.141 13.648V9.392H182.637ZM196.073 9.264C197.15 9.264 198.004 9.584 198.633 10.224C199.273 10.8533 199.593 11.8027 199.593 13.072V18H197.097V13.456C197.097 12.7733 196.953 12.2667 196.665 11.936C196.388 11.5947 195.988 11.424 195.465 11.424C194.878 11.424 194.414 11.616 194.073 12C193.732 12.3733 193.561 12.9333 193.561 13.68V18H191.065V13.456C191.065 12.1013 190.521 11.424 189.433 11.424C188.857 11.424 188.398 11.616 188.057 12C187.716 12.3733 187.545 12.9333 187.545 13.68V18H185.049V9.392H187.433V10.384C187.753 10.0213 188.142 9.744 188.601 9.552C189.07 9.36 189.582 9.264 190.137 9.264C190.745 9.264 191.294 9.38667 191.785 9.632C192.276 9.86667 192.67 10.2133 192.969 10.672C193.321 10.224 193.764 9.87733 194.297 9.632C194.841 9.38667 195.433 9.264 196.073 9.264ZM207.018 9.264C207.818 9.264 208.543 9.45067 209.194 9.824C209.855 10.1867 210.373 10.704 210.746 11.376C211.119 12.0373 211.306 12.8107 211.306 13.696C211.306 14.5813 211.119 15.36 210.746 16.032C210.373 16.6933 209.855 17.2107 209.194 17.584C208.543 17.9467 207.818 18.128 207.018 18.128C205.919 18.128 205.055 17.7813 204.426 17.088V21.104H201.93V9.392H204.314V10.384C204.933 9.63733 205.834 9.264 207.018 9.264ZM206.586 16.08C207.226 16.08 207.749 15.8667 208.154 15.44C208.57 15.0027 208.778 14.4213 208.778 13.696C208.778 12.9707 208.57 12.3947 208.154 11.968C207.749 11.5307 207.226 11.312 206.586 11.312C205.946 11.312 205.418 11.5307 205.002 11.968C204.597 12.3947 204.394 12.9707 204.394 13.696C204.394 14.4213 204.597 15.0027 205.002 15.44C205.418 15.8667 205.946 16.08 206.586 16.08ZM215.973 18.128C215.258 18.128 214.56 18.0427 213.877 17.872C213.194 17.6907 212.65 17.4667 212.245 17.2L213.077 15.408C213.461 15.6533 213.925 15.856 214.469 16.016C215.013 16.1653 215.546 16.24 216.069 16.24C217.125 16.24 217.653 15.9787 217.653 15.456C217.653 15.2107 217.509 15.0347 217.221 14.928C216.933 14.8213 216.49 14.7307 215.893 14.656C215.189 14.5493 214.608 14.4267 214.149 14.288C213.69 14.1493 213.29 13.904 212.949 13.552C212.618 13.2 212.453 12.6987 212.453 12.048C212.453 11.504 212.608 11.024 212.917 10.608C213.237 10.1813 213.696 9.85067 214.293 9.616C214.901 9.38133 215.616 9.264 216.437 9.264C217.045 9.264 217.648 9.33333 218.245 9.472C218.853 9.6 219.354 9.78133 219.749 10.016L218.917 11.792C218.16 11.3653 217.333 11.152 216.437 11.152C215.904 11.152 215.504 11.2267 215.237 11.376C214.97 11.5253 214.837 11.7173 214.837 11.952C214.837 12.2187 214.981 12.4053 215.269 12.512C215.557 12.6187 216.016 12.72 216.645 12.816C217.349 12.9333 217.925 13.0613 218.373 13.2C218.821 13.328 219.21 13.568 219.541 13.92C219.872 14.272 220.037 14.7627 220.037 15.392C220.037 15.9253 219.877 16.4 219.557 16.816C219.237 17.232 218.768 17.5573 218.149 17.792C217.541 18.016 216.816 18.128 215.973 18.128ZM230.404 18.128C229.498 18.128 228.682 17.9413 227.956 17.568C227.242 17.184 226.682 16.656 226.276 15.984C225.871 15.312 225.668 14.5493 225.668 13.696C225.668 12.8427 225.871 12.08 226.276 11.408C226.682 10.736 227.242 10.2133 227.956 9.84C228.682 9.456 229.498 9.264 230.404 9.264C231.311 9.264 232.122 9.456 232.836 9.84C233.551 10.2133 234.111 10.736 234.516 11.408C234.922 12.08 235.124 12.8427 235.124 13.696C235.124 14.5493 234.922 15.312 234.516 15.984C234.111 16.656 233.551 17.184 232.836 17.568C232.122 17.9413 231.311 18.128 230.404 18.128ZM230.404 16.08C231.044 16.08 231.567 15.8667 231.972 15.44C232.388 15.0027 232.596 14.4213 232.596 13.696C232.596 12.9707 232.388 12.3947 231.972 11.968C231.567 11.5307 231.044 11.312 230.404 11.312C229.764 11.312 229.236 11.5307 228.82 11.968C228.404 12.3947 228.196 12.9707 228.196 13.696C228.196 14.4213 228.404 15.0027 228.82 15.44C229.236 15.8667 229.764 16.08 230.404 16.08ZM245.202 9.392L241.57 18H238.994L235.378 9.392H237.954L240.338 15.248L242.802 9.392H245.202ZM254.518 13.728C254.518 13.76 254.502 13.984 254.47 14.4H247.958C248.076 14.9333 248.353 15.3547 248.79 15.664C249.228 15.9733 249.772 16.128 250.422 16.128C250.87 16.128 251.265 16.064 251.606 15.936C251.958 15.7973 252.284 15.584 252.582 15.296L253.91 16.736C253.1 17.664 251.916 18.128 250.358 18.128C249.388 18.128 248.529 17.9413 247.782 17.568C247.036 17.184 246.46 16.656 246.054 15.984C245.649 15.312 245.446 14.5493 245.446 13.696C245.446 12.8533 245.644 12.096 246.038 11.424C246.444 10.7413 246.993 10.2133 247.686 9.84C248.39 9.456 249.174 9.264 250.038 9.264C250.881 9.264 251.644 9.44533 252.326 9.808C253.009 10.1707 253.542 10.6933 253.926 11.376C254.321 12.048 254.518 12.832 254.518 13.728ZM250.054 11.152C249.489 11.152 249.014 11.312 248.63 11.632C248.246 11.952 248.012 12.3893 247.926 12.944H252.166C252.081 12.4 251.846 11.968 251.462 11.648C251.078 11.3173 250.609 11.152 250.054 11.152ZM258.664 10.528C258.963 10.112 259.363 9.79733 259.864 9.584C260.376 9.37067 260.963 9.264 261.624 9.264V11.568C261.347 11.5467 261.16 11.536 261.064 11.536C260.349 11.536 259.789 11.7387 259.384 12.144C258.979 12.5387 258.776 13.136 258.776 13.936V18H256.28V9.392H258.664V10.528ZM273.454 17.584C273.209 17.7653 272.905 17.904 272.542 18C272.19 18.0853 271.817 18.128 271.422 18.128C270.398 18.128 269.603 17.8667 269.038 17.344C268.483 16.8213 268.206 16.0533 268.206 15.04V11.504H266.878V9.584H268.206V7.488H270.702V9.584H272.846V11.504H270.702V15.008C270.702 15.3707 270.793 15.6533 270.974 15.856C271.166 16.048 271.433 16.144 271.774 16.144C272.169 16.144 272.505 16.0373 272.782 15.824L273.454 17.584ZM280.187 9.264C281.254 9.264 282.112 9.584 282.763 10.224C283.424 10.864 283.755 11.8133 283.755 13.072V18H281.259V13.456C281.259 12.7733 281.11 12.2667 280.811 11.936C280.512 11.5947 280.08 11.424 279.515 11.424C278.886 11.424 278.384 11.6213 278.011 12.016C277.638 12.4 277.451 12.976 277.451 13.744V18H274.955V6.128H277.451V10.288C277.782 9.95733 278.182 9.70667 278.651 9.536C279.12 9.35467 279.632 9.264 280.187 9.264ZM294.643 13.728C294.643 13.76 294.627 13.984 294.595 14.4H288.083C288.201 14.9333 288.478 15.3547 288.915 15.664C289.353 15.9733 289.897 16.128 290.547 16.128C290.995 16.128 291.39 16.064 291.731 15.936C292.083 15.7973 292.409 15.584 292.707 15.296L294.035 16.736C293.225 17.664 292.041 18.128 290.483 18.128C289.513 18.128 288.654 17.9413 287.907 17.568C287.161 17.184 286.585 16.656 286.179 15.984C285.774 15.312 285.571 14.5493 285.571 13.696C285.571 12.8533 285.769 12.096 286.163 11.424C286.569 10.7413 287.118 10.2133 287.811 9.84C288.515 9.456 289.299 9.264 290.163 9.264C291.006 9.264 291.769 9.44533 292.451 9.808C293.134 10.1707 293.667 10.6933 294.051 11.376C294.446 12.048 294.643 12.832 294.643 13.728ZM290.179 11.152C289.614 11.152 289.139 11.312 288.755 11.632C288.371 11.952 288.137 12.3893 288.051 12.944H292.291C292.206 12.4 291.971 11.968 291.587 11.648C291.203 11.3173 290.734 11.152 290.179 11.152ZM301.036 6.128H303.532V18H301.036V6.128ZM309.421 9.264C310.754 9.264 311.778 9.584 312.493 10.224C313.208 10.8533 313.565 11.808 313.565 13.088V18H311.229V16.928C310.76 17.728 309.885 18.128 308.605 18.128C307.944 18.128 307.368 18.016 306.877 17.792C306.397 17.568 306.029 17.2587 305.773 16.864C305.517 16.4693 305.389 16.0213 305.389 15.52C305.389 14.72 305.688 14.0907 306.285 13.632C306.893 13.1733 307.826 12.944 309.085 12.944H311.069C311.069 12.4 310.904 11.984 310.573 11.696C310.242 11.3973 309.746 11.248 309.085 11.248C308.626 11.248 308.173 11.3227 307.725 11.472C307.288 11.6107 306.914 11.8027 306.605 12.048L305.709 10.304C306.178 9.97333 306.738 9.71733 307.389 9.536C308.05 9.35467 308.728 9.264 309.421 9.264ZM309.229 16.448C309.656 16.448 310.034 16.352 310.365 16.16C310.696 15.9573 310.93 15.664 311.069 15.28V14.4H309.357C308.333 14.4 307.821 14.736 307.821 15.408C307.821 15.728 307.944 15.984 308.189 16.176C308.445 16.3573 308.792 16.448 309.229 16.448ZM323.012 16.08V18H315.332V16.496L319.716 11.312H315.444V9.392H322.868V10.896L318.484 16.08H323.012ZM333.099 9.392L329.211 18.528C328.816 19.52 328.326 20.2187 327.739 20.624C327.163 21.0293 326.464 21.232 325.643 21.232C325.195 21.232 324.752 21.1627 324.315 21.024C323.878 20.8853 323.52 20.6933 323.243 20.448L324.155 18.672C324.347 18.8427 324.566 18.976 324.811 19.072C325.067 19.168 325.318 19.216 325.563 19.216C325.904 19.216 326.182 19.1307 326.395 18.96C326.608 18.8 326.8 18.528 326.971 18.144L327.003 18.064L323.275 9.392H325.851L328.267 15.232L330.699 9.392H333.099ZM61.92 30.128V42H59.536V41.008C58.9173 41.7547 58.0213 42.128 56.848 42.128C56.0373 42.128 55.3013 41.9467 54.64 41.584C53.9893 41.2213 53.4773 40.704 53.104 40.032C52.7307 39.36 52.544 38.5813 52.544 37.696C52.544 36.8107 52.7307 36.032 53.104 35.36C53.4773 34.688 53.9893 34.1707 54.64 33.808C55.3013 33.4453 56.0373 33.264 56.848 33.264C57.9467 33.264 58.8053 33.6107 59.424 34.304V30.128H61.92ZM57.28 40.08C57.9093 40.08 58.432 39.8667 58.848 39.44C59.264 39.0027 59.472 38.4213 59.472 37.696C59.472 36.9707 59.264 36.3947 58.848 35.968C58.432 35.5307 57.9093 35.312 57.28 35.312C56.64 35.312 56.112 35.5307 55.696 35.968C55.28 36.3947 55.072 36.9707 55.072 37.696C55.072 38.4213 55.28 39.0027 55.696 39.44C56.112 39.8667 56.64 40.08 57.28 40.08ZM68.4261 42.128C67.5195 42.128 66.7035 41.9413 65.9781 41.568C65.2635 41.184 64.7035 40.656 64.2981 39.984C63.8928 39.312 63.6901 38.5493 63.6901 37.696C63.6901 36.8427 63.8928 36.08 64.2981 35.408C64.7035 34.736 65.2635 34.2133 65.9781 33.84C66.7035 33.456 67.5195 33.264 68.4261 33.264C69.3328 33.264 70.1435 33.456 70.8581 33.84C71.5728 34.2133 72.1328 34.736 72.5381 35.408C72.9435 36.08 73.1461 36.8427 73.1461 37.696C73.1461 38.5493 72.9435 39.312 72.5381 39.984C72.1328 40.656 71.5728 41.184 70.8581 41.568C70.1435 41.9413 69.3328 42.128 68.4261 42.128ZM68.4261 40.08C69.0661 40.08 69.5888 39.8667 69.9941 39.44C70.4101 39.0027 70.6181 38.4213 70.6181 37.696C70.6181 36.9707 70.4101 36.3947 69.9941 35.968C69.5888 35.5307 69.0661 35.312 68.4261 35.312C67.7861 35.312 67.2581 35.5307 66.8421 35.968C66.4261 36.3947 66.2181 36.9707 66.2181 37.696C66.2181 38.4213 66.4261 39.0027 66.8421 39.44C67.2581 39.8667 67.7861 40.08 68.4261 40.08ZM83.7945 33.392V40.56C83.7945 42.1387 83.3838 43.312 82.5625 44.08C81.7412 44.848 80.5412 45.232 78.9625 45.232C78.1305 45.232 77.3412 45.1307 76.5945 44.928C75.8478 44.7253 75.2292 44.432 74.7385 44.048L75.7305 42.256C76.0932 42.5547 76.5518 42.7893 77.1065 42.96C77.6612 43.1413 78.2158 43.232 78.7705 43.232C79.6345 43.232 80.2692 43.0347 80.6745 42.64C81.0905 42.256 81.2985 41.6693 81.2985 40.88V40.512C80.6478 41.2267 79.7412 41.584 78.5785 41.584C77.7892 41.584 77.0638 41.4133 76.4025 41.072C75.7518 40.72 75.2345 40.2293 74.8505 39.6C74.4665 38.9707 74.2745 38.2453 74.2745 37.424C74.2745 36.6027 74.4665 35.8773 74.8505 35.248C75.2345 34.6187 75.7518 34.1333 76.4025 33.792C77.0638 33.44 77.7892 33.264 78.5785 33.264C79.8265 33.264 80.7758 33.6747 81.4265 34.496V33.392H83.7945ZM79.0745 39.536C79.7358 39.536 80.2745 39.344 80.6905 38.96C81.1172 38.5653 81.3305 38.0533 81.3305 37.424C81.3305 36.7947 81.1172 36.288 80.6905 35.904C80.2745 35.5093 79.7358 35.312 79.0745 35.312C78.4132 35.312 77.8692 35.5093 77.4425 35.904C77.0158 36.288 76.8025 36.7947 76.8025 37.424C76.8025 38.0533 77.0158 38.5653 77.4425 38.96C77.8692 39.344 78.4132 39.536 79.0745 39.536Z" fill="#252B42"/>
<path d="M55.304 61.74H52.056V60.2H60.372V61.74H57.124V70H55.304V61.74ZM66.0119 62.44C66.9545 62.44 67.7105 62.7153 68.2799 63.266C68.8492 63.8167 69.1339 64.6333 69.1339 65.716V70H67.3839V65.94C67.3839 65.2867 67.2299 64.7967 66.9219 64.47C66.6139 64.134 66.1752 63.966 65.6059 63.966C64.9619 63.966 64.4532 64.162 64.0799 64.554C63.7065 64.9367 63.5199 65.492 63.5199 66.22V70H61.7699V59.612H63.5199V63.392C63.8092 63.084 64.1639 62.8507 64.5839 62.692C65.0132 62.524 65.4892 62.44 66.0119 62.44ZM71.5539 62.524H73.3039V70H71.5539V62.524ZM72.4359 61.292C72.1185 61.292 71.8525 61.194 71.6379 60.998C71.4232 60.7927 71.3159 60.5407 71.3159 60.242C71.3159 59.9433 71.4232 59.696 71.6379 59.5C71.8525 59.2947 72.1185 59.192 72.4359 59.192C72.7532 59.192 73.0192 59.29 73.2339 59.486C73.4485 59.6727 73.5559 59.9107 73.5559 60.2C73.5559 60.508 73.4485 60.7693 73.2339 60.984C73.0285 61.1893 72.7625 61.292 72.4359 61.292ZM80.0427 62.44C80.9854 62.44 81.7414 62.7153 82.3107 63.266C82.8801 63.8167 83.1647 64.6333 83.1647 65.716V70H81.4147V65.94C81.4147 65.2867 81.2607 64.7967 80.9527 64.47C80.6447 64.134 80.2061 63.966 79.6367 63.966C78.9927 63.966 78.4841 64.162 78.1107 64.554C77.7374 64.9367 77.5507 65.492 77.5507 66.22V70H75.8007V62.524H77.4667V63.49C77.7561 63.1447 78.1201 62.8833 78.5587 62.706C78.9974 62.5287 79.4921 62.44 80.0427 62.44ZM93.0731 62.524V68.866C93.0731 71.498 91.7291 72.814 89.0411 72.814C88.3224 72.814 87.6411 72.7207 86.9971 72.534C86.3531 72.3567 85.8211 72.0953 85.4011 71.75L86.1851 70.434C86.5117 70.7047 86.9224 70.9193 87.4171 71.078C87.9211 71.246 88.4297 71.33 88.9431 71.33C89.7644 71.33 90.3664 71.1433 90.7491 70.77C91.1317 70.3967 91.3231 69.8273 91.3231 69.062V68.67C91.0244 68.9967 90.6604 69.244 90.2311 69.412C89.8017 69.58 89.3304 69.664 88.8171 69.664C88.1077 69.664 87.4637 69.5147 86.8851 69.216C86.3157 68.908 85.8631 68.4787 85.5271 67.928C85.2004 67.3773 85.0371 66.7473 85.0371 66.038C85.0371 65.3287 85.2004 64.7033 85.5271 64.162C85.8631 63.6113 86.3157 63.1867 86.8851 62.888C87.4637 62.5893 88.1077 62.44 88.8171 62.44C89.3584 62.44 89.8484 62.5287 90.2871 62.706C90.7351 62.8833 91.1084 63.154 91.4071 63.518V62.524H93.0731ZM89.0831 68.18C89.7457 68.18 90.2871 67.984 90.7071 67.592C91.1364 67.1907 91.3511 66.6727 91.3511 66.038C91.3511 65.4127 91.1364 64.904 90.7071 64.512C90.2871 64.12 89.7457 63.924 89.0831 63.924C88.4111 63.924 87.8604 64.12 87.4311 64.512C87.0111 64.904 86.8011 65.4127 86.8011 66.038C86.8011 66.6727 87.0111 67.1907 87.4311 67.592C87.8604 67.984 88.4111 68.18 89.0831 68.18ZM97.8838 70.098C97.2771 70.098 96.6844 70.0187 96.1058 69.86C95.5271 69.7013 95.0651 69.5007 94.7198 69.258L95.3918 67.928C95.7278 68.152 96.1291 68.334 96.5958 68.474C97.0718 68.6047 97.5384 68.67 97.9958 68.67C99.0411 68.67 99.5638 68.3947 99.5638 67.844C99.5638 67.5827 99.4284 67.4007 99.1578 67.298C98.8964 67.1953 98.4718 67.0973 97.8838 67.004C97.2678 66.9107 96.7638 66.8033 96.3718 66.682C95.9891 66.5607 95.6531 66.3507 95.3638 66.052C95.0838 65.744 94.9438 65.3193 94.9438 64.778C94.9438 64.0687 95.2378 63.504 95.8258 63.084C96.4231 62.6547 97.2258 62.44 98.2338 62.44C98.7471 62.44 99.2604 62.5007 99.7738 62.622C100.287 62.734 100.707 62.888 101.034 63.084L100.362 64.414C99.7271 64.0407 99.0131 63.854 98.2198 63.854C97.7064 63.854 97.3144 63.9333 97.0438 64.092C96.7824 64.2413 96.6518 64.442 96.6518 64.694C96.6518 64.974 96.7918 65.1747 97.0718 65.296C97.3611 65.408 97.8044 65.5153 98.4018 65.618C98.9991 65.7113 99.4891 65.8187 99.8718 65.94C100.254 66.0613 100.581 66.2667 100.852 66.556C101.132 66.8453 101.272 67.256 101.272 67.788C101.272 68.488 100.968 69.048 100.362 69.468C99.7551 69.888 98.9291 70.098 97.8838 70.098ZM110.408 70.098C109.652 70.098 108.971 69.9347 108.364 69.608C107.757 69.2813 107.281 68.8287 106.936 68.25C106.6 67.662 106.432 66.9993 106.432 66.262C106.432 65.5247 106.6 64.8667 106.936 64.288C107.281 63.7093 107.757 63.2567 108.364 62.93C108.971 62.6033 109.652 62.44 110.408 62.44C111.173 62.44 111.859 62.6033 112.466 62.93C113.073 63.2567 113.544 63.7093 113.88 64.288C114.225 64.8667 114.398 65.5247 114.398 66.262C114.398 66.9993 114.225 67.662 113.88 68.25C113.544 68.8287 113.073 69.2813 112.466 69.608C111.859 69.9347 111.173 70.098 110.408 70.098ZM110.408 68.6C111.052 68.6 111.584 68.3853 112.004 67.956C112.424 67.5267 112.634 66.962 112.634 66.262C112.634 65.562 112.424 64.9973 112.004 64.568C111.584 64.1387 111.052 63.924 110.408 63.924C109.764 63.924 109.232 64.1387 108.812 64.568C108.401 64.9973 108.196 65.562 108.196 66.262C108.196 66.962 108.401 67.5267 108.812 67.956C109.232 68.3853 109.764 68.6 110.408 68.6ZM120.513 62.44C121.456 62.44 122.212 62.7153 122.781 63.266C123.351 63.8167 123.635 64.6333 123.635 65.716V70H121.885V65.94C121.885 65.2867 121.731 64.7967 121.423 64.47C121.115 64.134 120.677 63.966 120.107 63.966C119.463 63.966 118.955 64.162 118.581 64.554C118.208 64.9367 118.021 65.492 118.021 66.22V70H116.271V62.524H117.937V63.49C118.227 63.1447 118.591 62.8833 119.029 62.706C119.468 62.5287 119.963 62.44 120.513 62.44ZM132.981 62.44C134.082 62.44 134.922 62.706 135.501 63.238C136.089 63.7607 136.383 64.554 136.383 65.618V70H134.731V69.09C134.516 69.4167 134.208 69.6687 133.807 69.846C133.415 70.014 132.939 70.098 132.379 70.098C131.819 70.098 131.329 70.0047 130.909 69.818C130.489 69.622 130.162 69.356 129.929 69.02C129.705 68.6747 129.593 68.2873 129.593 67.858C129.593 67.186 129.84 66.6493 130.335 66.248C130.839 65.8373 131.627 65.632 132.701 65.632H134.633V65.52C134.633 64.9973 134.474 64.596 134.157 64.316C133.849 64.036 133.387 63.896 132.771 63.896C132.351 63.896 131.935 63.9613 131.525 64.092C131.123 64.2227 130.783 64.4047 130.503 64.638L129.817 63.364C130.209 63.0653 130.68 62.8367 131.231 62.678C131.781 62.5193 132.365 62.44 132.981 62.44ZM132.743 68.824C133.181 68.824 133.569 68.726 133.905 68.53C134.25 68.3247 134.493 68.0353 134.633 67.662V66.794H132.827C131.819 66.794 131.315 67.1253 131.315 67.788C131.315 68.1053 131.441 68.3573 131.693 68.544C131.945 68.7307 132.295 68.824 132.743 68.824ZM149.898 62.524L146.692 70H144.886L141.68 62.524H143.5L145.824 68.068L148.218 62.524H149.898ZM158.014 66.304C158.014 66.4253 158.005 66.598 157.986 66.822H152.12C152.223 67.3727 152.489 67.8113 152.918 68.138C153.357 68.4553 153.898 68.614 154.542 68.614C155.364 68.614 156.04 68.3433 156.572 67.802L157.51 68.88C157.174 69.2813 156.75 69.5847 156.236 69.79C155.723 69.9953 155.144 70.098 154.5 70.098C153.679 70.098 152.956 69.9347 152.33 69.608C151.705 69.2813 151.22 68.8287 150.874 68.25C150.538 67.662 150.37 66.9993 150.37 66.262C150.37 65.534 150.534 64.8807 150.86 64.302C151.196 63.714 151.658 63.2567 152.246 62.93C152.834 62.6033 153.497 62.44 154.234 62.44C154.962 62.44 155.611 62.6033 156.18 62.93C156.759 63.2473 157.207 63.7 157.524 64.288C157.851 64.8667 158.014 65.5387 158.014 66.304ZM154.234 63.84C153.674 63.84 153.198 64.008 152.806 64.344C152.424 64.6707 152.19 65.1093 152.106 65.66H156.348C156.274 65.1187 156.045 64.68 155.662 64.344C155.28 64.008 154.804 63.84 154.234 63.84ZM161.561 63.616C162.065 62.832 162.952 62.44 164.221 62.44V64.106C164.072 64.078 163.937 64.064 163.815 64.064C163.134 64.064 162.602 64.2647 162.219 64.666C161.837 65.058 161.645 65.6273 161.645 66.374V70H159.895V62.524H161.561V63.616ZM173.179 62.524L169.679 70.602C169.353 71.414 168.956 71.9833 168.489 72.31C168.023 72.646 167.458 72.814 166.795 72.814C166.422 72.814 166.053 72.7533 165.689 72.632C165.325 72.5107 165.027 72.3427 164.793 72.128L165.493 70.84C165.661 70.9987 165.857 71.1247 166.081 71.218C166.315 71.3113 166.548 71.358 166.781 71.358C167.089 71.358 167.341 71.2787 167.537 71.12C167.743 70.9613 167.929 70.6953 168.097 70.322L168.223 70.028L164.961 62.524H166.781L169.133 68.054L171.499 62.524H173.179ZM180.852 70.098C180.245 70.098 179.653 70.0187 179.074 69.86C178.495 69.7013 178.033 69.5007 177.688 69.258L178.36 67.928C178.696 68.152 179.097 68.334 179.564 68.474C180.04 68.6047 180.507 68.67 180.964 68.67C182.009 68.67 182.532 68.3947 182.532 67.844C182.532 67.5827 182.397 67.4007 182.126 67.298C181.865 67.1953 181.44 67.0973 180.852 67.004C180.236 66.9107 179.732 66.8033 179.34 66.682C178.957 66.5607 178.621 66.3507 178.332 66.052C178.052 65.744 177.912 65.3193 177.912 64.778C177.912 64.0687 178.206 63.504 178.794 63.084C179.391 62.6547 180.194 62.44 181.202 62.44C181.715 62.44 182.229 62.5007 182.742 62.622C183.255 62.734 183.675 62.888 184.002 63.084L183.33 64.414C182.695 64.0407 181.981 63.854 181.188 63.854C180.675 63.854 180.283 63.9333 180.012 64.092C179.751 64.2413 179.62 64.442 179.62 64.694C179.62 64.974 179.76 65.1747 180.04 65.296C180.329 65.408 180.773 65.5153 181.37 65.618C181.967 65.7113 182.457 65.8187 182.84 65.94C183.223 66.0613 183.549 66.2667 183.82 66.556C184.1 66.8453 184.24 67.256 184.24 67.788C184.24 68.488 183.937 69.048 183.33 69.468C182.723 69.888 181.897 70.098 180.852 70.098ZM195.383 62.44C196.326 62.44 197.073 62.7153 197.623 63.266C198.174 63.8073 198.449 64.624 198.449 65.716V70H196.699V65.94C196.699 65.2867 196.555 64.7967 196.265 64.47C195.976 64.134 195.561 63.966 195.019 63.966C194.431 63.966 193.96 64.162 193.605 64.554C193.251 64.9367 193.073 65.4873 193.073 66.206V70H191.323V65.94C191.323 65.2867 191.179 64.7967 190.889 64.47C190.6 64.134 190.185 63.966 189.643 63.966C189.046 63.966 188.57 64.1573 188.215 64.54C187.87 64.9227 187.697 65.478 187.697 66.206V70H185.947V62.524H187.613V63.476C187.893 63.14 188.243 62.8833 188.663 62.706C189.083 62.5287 189.55 62.44 190.063 62.44C190.623 62.44 191.118 62.5473 191.547 62.762C191.986 62.9673 192.331 63.2753 192.583 63.686C192.891 63.294 193.288 62.9907 193.773 62.776C194.259 62.552 194.795 62.44 195.383 62.44ZM203.742 62.44C204.843 62.44 205.683 62.706 206.262 63.238C206.85 63.7607 207.144 64.554 207.144 65.618V70H205.492V69.09C205.277 69.4167 204.969 69.6687 204.568 69.846C204.176 70.014 203.7 70.098 203.14 70.098C202.58 70.098 202.09 70.0047 201.67 69.818C201.25 69.622 200.923 69.356 200.69 69.02C200.466 68.6747 200.354 68.2873 200.354 67.858C200.354 67.186 200.601 66.6493 201.096 66.248C201.6 65.8373 202.388 65.632 203.462 65.632H205.394V65.52C205.394 64.9973 205.235 64.596 204.918 64.316C204.61 64.036 204.148 63.896 203.532 63.896C203.112 63.896 202.696 63.9613 202.286 64.092C201.884 64.2227 201.544 64.4047 201.264 64.638L200.578 63.364C200.97 63.0653 201.441 62.8367 201.992 62.678C202.542 62.5193 203.126 62.44 203.742 62.44ZM203.504 68.824C203.942 68.824 204.33 68.726 204.666 68.53C205.011 68.3247 205.254 68.0353 205.394 67.662V66.794H203.588C202.58 66.794 202.076 67.1253 202.076 67.788C202.076 68.1053 202.202 68.3573 202.454 68.544C202.706 68.7307 203.056 68.824 203.504 68.824ZM209.589 59.612H211.339V70H209.589V59.612ZM213.836 59.612H215.586V70H213.836V59.612ZM224.462 70.098C223.856 70.098 223.263 70.0187 222.684 69.86C222.106 69.7013 221.644 69.5007 221.298 69.258L221.97 67.928C222.306 68.152 222.708 68.334 223.174 68.474C223.65 68.6047 224.117 68.67 224.574 68.67C225.62 68.67 226.142 68.3947 226.142 67.844C226.142 67.5827 226.007 67.4007 225.736 67.298C225.475 67.1953 225.05 67.0973 224.462 67.004C223.846 66.9107 223.342 66.8033 222.95 66.682C222.568 66.5607 222.232 66.3507 221.942 66.052C221.662 65.744 221.522 65.3193 221.522 64.778C221.522 64.0687 221.816 63.504 222.404 63.084C223.002 62.6547 223.804 62.44 224.812 62.44C225.326 62.44 225.839 62.5007 226.352 62.622C226.866 62.734 227.286 62.888 227.612 63.084L226.94 64.414C226.306 64.0407 225.592 63.854 224.798 63.854C224.285 63.854 223.893 63.9333 223.622 64.092C223.361 64.2413 223.23 64.442 223.23 64.694C223.23 64.974 223.37 65.1747 223.65 65.296C223.94 65.408 224.383 65.5153 224.98 65.618C225.578 65.7113 226.068 65.8187 226.45 65.94C226.833 66.0613 227.16 66.2667 227.43 66.556C227.71 66.8453 227.85 67.256 227.85 67.788C227.85 68.488 227.547 69.048 226.94 69.468C226.334 69.888 225.508 70.098 224.462 70.098ZM232.987 70.098C232.213 70.098 231.517 69.9347 230.901 69.608C230.285 69.2813 229.805 68.8287 229.459 68.25C229.114 67.662 228.941 66.9993 228.941 66.262C228.941 65.5247 229.114 64.8667 229.459 64.288C229.805 63.7093 230.281 63.2567 230.887 62.93C231.503 62.6033 232.203 62.44 232.987 62.44C233.725 62.44 234.369 62.5893 234.919 62.888C235.479 63.1867 235.899 63.616 236.179 64.176L234.835 64.96C234.621 64.6147 234.35 64.358 234.023 64.19C233.706 64.0127 233.356 63.924 232.973 63.924C232.32 63.924 231.779 64.1387 231.349 64.568C230.92 64.988 230.705 65.5527 230.705 66.262C230.705 66.9713 230.915 67.5407 231.335 67.97C231.765 68.39 232.311 68.6 232.973 68.6C233.356 68.6 233.706 68.516 234.023 68.348C234.35 68.1707 234.621 67.9093 234.835 67.564L236.179 68.348C235.89 68.908 235.465 69.342 234.905 69.65C234.355 69.9487 233.715 70.098 232.987 70.098ZM240.748 62.44C241.849 62.44 242.689 62.706 243.268 63.238C243.856 63.7607 244.15 64.554 244.15 65.618V70H242.498V69.09C242.283 69.4167 241.975 69.6687 241.574 69.846C241.182 70.014 240.706 70.098 240.146 70.098C239.586 70.098 239.096 70.0047 238.676 69.818C238.256 69.622 237.929 69.356 237.696 69.02C237.472 68.6747 237.36 68.2873 237.36 67.858C237.36 67.186 237.607 66.6493 238.102 66.248C238.606 65.8373 239.395 65.632 240.468 65.632H242.4V65.52C242.4 64.9973 242.241 64.596 241.924 64.316C241.616 64.036 241.154 63.896 240.538 63.896C240.118 63.896 239.703 63.9613 239.292 64.092C238.891 64.2227 238.55 64.4047 238.27 64.638L237.584 63.364C237.976 63.0653 238.447 62.8367 238.998 62.678C239.549 62.5193 240.132 62.44 240.748 62.44ZM240.51 68.824C240.949 68.824 241.336 68.726 241.672 68.53C242.017 68.3247 242.26 68.0353 242.4 67.662V66.794H240.594C239.586 66.794 239.082 67.1253 239.082 67.788C239.082 68.1053 239.208 68.3573 239.46 68.544C239.712 68.7307 240.062 68.824 240.51 68.824ZM246.596 59.612H248.346V70H246.596V59.612ZM257.871 66.304C257.871 66.4253 257.862 66.598 257.843 66.822H251.977C252.08 67.3727 252.346 67.8113 252.775 68.138C253.214 68.4553 253.755 68.614 254.399 68.614C255.22 68.614 255.897 68.3433 256.429 67.802L257.367 68.88C257.031 69.2813 256.606 69.5847 256.093 69.79C255.58 69.9953 255.001 70.098 254.357 70.098C253.536 70.098 252.812 69.9347 252.187 69.608C251.562 69.2813 251.076 68.8287 250.731 68.25C250.395 67.662 250.227 66.9993 250.227 66.262C250.227 65.534 250.39 64.8807 250.717 64.302C251.053 63.714 251.515 63.2567 252.103 62.93C252.691 62.6033 253.354 62.44 254.091 62.44C254.819 62.44 255.468 62.6033 256.037 62.93C256.616 63.2473 257.064 63.7 257.381 64.288C257.708 64.8667 257.871 65.5387 257.871 66.304ZM254.091 63.84C253.531 63.84 253.055 64.008 252.663 64.344C252.28 64.6707 252.047 65.1093 251.963 65.66H256.205C256.13 65.1187 255.902 64.68 255.519 64.344C255.136 64.008 254.66 63.84 254.091 63.84ZM264.381 70.098C264.064 70.098 263.793 69.9907 263.569 69.776C263.345 69.552 263.233 69.272 263.233 68.936C263.233 68.5907 263.34 68.3107 263.555 68.096C263.779 67.8813 264.054 67.774 264.381 67.774C264.708 67.774 264.978 67.8813 265.193 68.096C265.417 68.3107 265.529 68.5907 265.529 68.936C265.529 69.272 265.417 69.552 265.193 69.776C264.969 69.9907 264.698 70.098 264.381 70.098ZM267.999 70.098C267.682 70.098 267.411 69.9907 267.187 69.776C266.963 69.552 266.851 69.272 266.851 68.936C266.851 68.5907 266.958 68.3107 267.173 68.096C267.397 67.8813 267.672 67.774 267.999 67.774C268.326 67.774 268.596 67.8813 268.811 68.096C269.035 68.3107 269.147 68.5907 269.147 68.936C269.147 69.272 269.035 69.552 268.811 69.776C268.587 69.9907 268.316 70.098 267.999 70.098ZM271.617 70.098C271.3 70.098 271.029 69.9907 270.805 69.776C270.581 69.552 270.469 69.272 270.469 68.936C270.469 68.5907 270.576 68.3107 270.791 68.096C271.015 67.8813 271.29 67.774 271.617 67.774C271.944 67.774 272.214 67.8813 272.429 68.096C272.653 68.3107 272.765 68.5907 272.765 68.936C272.765 69.272 272.653 69.552 272.429 69.776C272.205 69.9907 271.934 70.098 271.617 70.098Z" fill="#737373"/>
</g>
<defs>
<clipPath id="clip0_964_17541">
<rect width="333" height="77" rx="9" fill="white"/>
</clipPath>
<clipPath id="clip1_964_17541">
<rect width="32" height="32" fill="white"/>
</clipPath>
</defs>
</svg>
