<svg width="330" height="77" viewBox="0 0 330 77" fill="none" xmlns="http://www.w3.org/2000/svg">
<path fill-rule="evenodd" clip-rule="evenodd" d="M18.2367 8.77151C17.7729 9.09308 17.2497 9.31905 16.6976 9.43623C16.1456 9.55342 15.5757 9.55949 15.0212 9.45407C14.4668 9.34865 13.9389 9.13385 13.4684 8.82223C12.9979 8.5106 12.5941 8.10838 12.2807 7.63904C11.9673 7.1697 11.7505 6.64263 11.643 6.08861C11.5354 5.53458 11.5393 4.96468 11.6544 4.41218C11.7695 3.85967 11.9935 3.33562 12.3133 2.8706C12.6331 2.40559 13.0423 2.00893 13.517 1.70376C14.4544 1.08466 15.5986 0.861813 16.6998 1.08393C17.8009 1.30605 18.7693 1.95506 19.3933 2.88911C20.0173 3.82315 20.2462 4.96625 20.0298 6.06853C19.8135 7.17081 19.1696 8.14262 18.2388 8.77151H18.2367ZM17.0573 3.47176C16.8259 3.30528 16.5633 3.18706 16.2853 3.12415C16.0072 3.06124 15.7193 3.05493 15.4388 3.10558C15.1583 3.15622 14.8908 3.26281 14.6523 3.41897C14.4138 3.57514 14.2091 3.7777 14.0505 4.0146C13.8919 4.25149 13.7826 4.51788 13.7291 4.79789C13.6756 5.07791 13.679 5.36583 13.739 5.64451C13.7991 5.92319 13.9146 6.18694 14.0788 6.42004C14.2429 6.65315 14.4522 6.85086 14.6943 7.00139C15.162 7.28552 15.7214 7.37824 16.2558 7.26023C16.7902 7.14222 17.2585 6.82258 17.563 6.36789C17.8676 5.9132 17.985 5.35852 17.8908 4.81941C17.7966 4.2803 17.498 3.79833 17.0573 3.47389V3.47176ZM22.6036 3.53551C23.2164 3.12326 23.9539 2.93762 24.6889 3.01054C25.4239 3.08346 26.1105 3.41038 26.6304 3.93501C27.0009 4.30848 27.2741 4.76715 27.426 5.27079C27.578 5.77443 27.604 6.30766 27.5018 6.82371C27.3997 7.33975 27.1724 7.82284 26.8401 8.23061C26.5077 8.63838 26.0804 8.95837 25.5956 9.16251C25.0133 9.40598 24.3715 9.47011 23.7526 9.34669C23.1336 9.22328 22.5656 8.91794 22.1212 8.46976C21.7872 8.13405 21.5315 7.72865 21.3725 7.28259C21.2135 6.83653 21.155 6.36083 21.2013 5.88954C21.2476 5.41825 21.3975 4.96302 21.6403 4.55643C21.8831 4.14984 22.2127 3.80194 22.6057 3.53764L22.6036 3.53551ZM23.6236 6.95676C23.8231 7.15543 24.0933 7.2667 24.3749 7.2661C24.5143 7.2658 24.6523 7.23805 24.7809 7.18443C24.9096 7.13081 25.0265 7.05236 25.1249 6.95357C25.2232 6.85479 25.3012 6.73759 25.3543 6.60868C25.4073 6.47977 25.4345 6.34167 25.4342 6.20226C25.4339 6.06285 25.4062 5.92486 25.3525 5.79618C25.2989 5.66749 25.2205 5.55063 25.1217 5.45226C24.9238 5.25328 24.6564 5.13899 24.3758 5.13351C24.2357 5.13323 24.0968 5.16073 23.9674 5.21442C23.8379 5.26811 23.7204 5.34694 23.6216 5.44633C23.5228 5.54573 23.4447 5.66372 23.3918 5.7935C23.3388 5.92327 23.3122 6.06224 23.3133 6.20239C23.314 6.48539 23.4253 6.7569 23.6236 6.95889V6.95676ZM5.65455 25.3975H9.5008V27.5331H5.65455C4.98123 27.5271 4.3378 27.2542 3.8653 26.7745C3.39099 26.293 3.12533 25.6441 3.1258 24.9683V21.122C2.8397 21.1124 2.5585 21.045 2.29919 20.9237C2.03988 20.8025 1.80783 20.6299 1.61705 20.4165C1.41433 20.2112 1.25524 19.967 1.14934 19.6985C1.04343 19.4301 0.992909 19.1431 1.0008 18.8546V14.2179C1.00718 13.2149 1.40455 12.2565 2.1058 11.5446C2.80493 10.8413 3.75055 10.4396 4.7408 10.4333H8.6508C8.1234 11.0614 7.72612 11.788 7.48205 12.571H4.7408C4.30951 12.5834 3.89915 12.7597 3.5933 13.064C3.29287 13.3729 3.1251 13.787 3.1258 14.2179V18.9609H5.2508V24.9661C5.24587 25.024 5.25275 25.0823 5.27101 25.1375C5.28928 25.1926 5.31855 25.2435 5.35705 25.287C5.44247 25.353 5.54664 25.3902 5.65455 25.3933V25.3975ZM21.167 11.5468C20.8193 11.1957 20.4057 10.9167 19.9498 10.726C19.494 10.5353 19.0049 10.4365 18.5108 10.4354H13.2408C12.2502 10.4433 11.3029 10.8428 10.6058 11.5468C9.90455 12.2586 9.50718 13.217 9.5008 14.22V20.9733C9.4978 21.5531 9.71853 22.1118 10.1171 22.533C10.3081 22.7462 10.5402 22.9185 10.7994 23.0397C11.0587 23.161 11.3398 23.2286 11.6258 23.2385V28.1749C11.6238 28.5118 11.6885 28.8458 11.8161 29.1576C11.9438 29.4695 12.1319 29.7529 12.3696 29.9918C12.7521 30.3488 13.2344 30.5804 13.7508 30.6548H18.0008C18.5985 30.5763 19.1461 30.2797 19.5384 29.8219C19.9306 29.3642 20.1398 28.7776 20.1258 28.1749V23.2364C20.4119 23.2268 20.6931 23.1594 20.9524 23.0381C21.2117 22.9169 21.4438 22.7443 21.6346 22.5309C21.8371 22.3259 21.9961 22.082 22.102 21.814C22.2079 21.5459 22.2585 21.2592 22.2508 20.9711V14.2179C22.2523 13.2195 21.8633 12.2601 21.167 11.5446V11.5468ZM20.1258 21.0774H18.0008V28.1749C17.9987 28.2869 17.953 28.3937 17.8733 28.4724C17.837 28.5153 17.7913 28.5492 17.7396 28.5713C17.688 28.5935 17.6319 28.6032 17.5758 28.5999H14.1546C14.0435 28.5947 13.9384 28.5483 13.8598 28.4697C13.7812 28.3911 13.7347 28.2859 13.7296 28.1749V21.0774H11.6258V14.2179C11.6258 13.7865 11.7937 13.3721 12.0933 13.064C12.3992 12.7597 12.8095 12.5834 13.2408 12.571H18.5108C18.8327 12.5767 19.146 12.6762 19.4121 12.8574C19.6782 13.0386 19.8857 13.2936 20.0089 13.591C20.0898 13.7899 20.1296 14.0032 20.1258 14.2179V21.0774ZM26.0971 27.531H22.2508V25.3954H26.0758C26.1837 25.3924 26.2879 25.3552 26.3733 25.2891C26.4161 25.2473 26.4496 25.1969 26.4715 25.1413C26.4935 25.0856 26.5035 25.0259 26.5008 24.9661V18.9609H28.6258V14.2179C28.6265 13.787 28.4587 13.3729 28.1583 13.064C27.8524 12.7597 27.4421 12.5834 27.0108 12.571H24.2696C24.0256 11.788 23.6283 11.0613 23.1008 10.4333H27.0108C28.0012 10.4423 28.9481 10.8417 29.6458 11.5446C30.347 12.2565 30.7444 13.2149 30.7508 14.2179V18.8546C30.7508 19.4348 30.5319 19.9915 30.1367 20.4123C29.7414 20.8351 29.2017 21.088 28.6258 21.1199V24.9661C28.6258 25.644 28.3602 26.2921 27.8863 26.7724C27.4138 27.2521 26.7704 27.5249 26.0971 27.531ZM7.3758 2.99576C6.74346 2.99503 6.12531 3.18314 5.60057 3.536C5.07583 3.88885 4.66842 4.39037 4.43055 4.97626C4.19049 5.56195 4.12817 6.20536 4.25136 6.82623C4.37456 7.4471 4.67781 8.01797 5.1233 8.46764C5.56863 8.91678 6.13774 9.22298 6.75793 9.34712C7.37812 9.47126 8.02124 9.4077 8.60514 9.16456C9.18903 8.92142 9.68719 8.50975 10.036 7.98212C10.3848 7.45449 10.5684 6.83486 10.5633 6.20239C10.5633 5.35239 10.2276 4.53639 9.6283 3.93501C9.33323 3.63779 8.98233 3.40181 8.59577 3.24063C8.20921 3.07944 7.79462 2.99622 7.3758 2.99576ZM7.3758 7.27126C7.23565 7.27155 7.09684 7.24405 6.96739 7.19035C6.83793 7.13666 6.72041 7.05784 6.6216 6.95844C6.5228 6.85905 6.44468 6.74105 6.39176 6.61128C6.33885 6.48151 6.31218 6.34253 6.3133 6.20239C6.31385 5.92017 6.42577 5.64959 6.62473 5.44944C6.82368 5.24928 7.0936 5.13575 7.3758 5.13351C7.65714 5.13847 7.92548 5.25287 8.12386 5.45244C8.32223 5.652 8.43503 5.92102 8.4383 6.20239C8.43775 6.4846 8.32583 6.75519 8.12688 6.95534C7.92792 7.15549 7.658 7.26902 7.3758 7.27126Z" fill="#FF7B47"/>
<path d="M56 11.12V14.976C56 15.3067 56.0853 15.568 56.256 15.76C56.4267 15.9413 56.6293 16.032 56.864 16.032C57.312 16.032 57.6907 15.8293 58 15.424L58.896 17.104C58.1493 17.7867 57.36 18.128 56.528 18.128C55.7067 18.128 55.008 17.856 54.432 17.312C53.8667 16.768 53.584 16.0267 53.584 15.088V11.12H52.576V9.392H53.584V6.816H56V9.392H58.08V11.12H56ZM62.6829 13.36V18H60.2829V6.128H62.6829V10.352C63.4082 9.616 64.2189 9.248 65.1149 9.248C66.0215 9.248 66.7842 9.568 67.4029 10.208C68.0215 10.848 68.3309 11.7013 68.3309 12.768V18H65.9309V13.296C65.9309 11.9733 65.4455 11.312 64.4749 11.312C63.9949 11.312 63.5735 11.488 63.2109 11.84C62.8589 12.1813 62.6829 12.688 62.6829 13.36ZM78.0576 16.752C77.087 17.6693 75.9456 18.128 74.6336 18.128C73.3323 18.128 72.255 17.728 71.4016 16.928C70.5483 16.1173 70.1216 15.0347 70.1216 13.68C70.1216 12.3253 70.5536 11.248 71.4176 10.448C72.2923 9.648 73.3216 9.248 74.5056 9.248C75.6896 9.248 76.6923 9.60533 77.5136 10.32C78.3456 11.0347 78.7616 12.016 78.7616 13.264V14.544H72.4896C72.5643 15.0133 72.8096 15.3973 73.2256 15.696C73.6416 15.9947 74.111 16.144 74.6336 16.144C75.4763 16.144 76.1696 15.8613 76.7136 15.296L78.0576 16.752ZM76.3296 12.832C76.2763 12.32 76.0843 11.9253 75.7536 11.648C75.423 11.3707 75.0176 11.232 74.5376 11.232C74.0683 11.232 73.6363 11.376 73.2416 11.664C72.847 11.952 72.6176 12.3413 72.5536 12.832H76.3296ZM88.543 18.128C87.4443 18.128 86.4843 17.7173 85.663 16.896C84.8417 16.064 84.431 15.0027 84.431 13.712C84.431 12.4107 84.831 11.344 85.631 10.512C86.431 9.66933 87.3217 9.248 88.303 9.248C89.2843 9.248 90.143 9.616 90.879 10.352V9.392H93.295V21.104H90.879V17.312C90.1963 17.856 89.4177 18.128 88.543 18.128ZM86.847 13.712C86.847 14.4053 87.055 14.976 87.471 15.424C87.887 15.8613 88.3723 16.08 88.927 16.08C89.4817 16.08 89.951 15.8613 90.335 15.424C90.719 14.976 90.911 14.4053 90.911 13.712C90.911 13.008 90.719 12.4267 90.335 11.968C89.951 11.4987 89.4763 11.264 88.911 11.264C88.3457 11.264 87.8603 11.4987 87.455 11.968C87.0497 12.4267 86.847 13.008 86.847 13.712ZM101.219 14.032V9.392H103.635V18H101.219V16.864C100.622 17.7067 99.8486 18.128 98.8993 18.128C97.9606 18.128 97.1713 17.8347 96.5312 17.248C95.8913 16.6507 95.5713 15.7707 95.5713 14.608V9.392H97.9873V14.08C97.9873 15.4027 98.4726 16.064 99.4433 16.064C99.9233 16.064 100.339 15.8933 100.691 15.552C101.043 15.2 101.219 14.6933 101.219 14.032ZM108.402 18H106.002V9.392H108.402V18ZM106.194 8.304C105.927 8.02667 105.794 7.69067 105.794 7.296C105.794 6.90133 105.927 6.57067 106.194 6.304C106.471 6.02667 106.807 5.888 107.202 5.888C107.596 5.888 107.927 6.02667 108.194 6.304C108.471 6.57067 108.61 6.90133 108.61 7.296C108.61 7.69067 108.471 8.02667 108.194 8.304C107.927 8.57067 107.596 8.704 107.202 8.704C106.807 8.704 106.471 8.57067 106.194 8.304ZM114.902 16C115.702 16 116.422 15.6 117.062 14.8L118.486 16.4C117.376 17.552 116.176 18.128 114.886 18.128C113.595 18.128 112.502 17.7227 111.606 16.912C110.72 16.0907 110.278 15.024 110.278 13.712C110.278 12.3893 110.726 11.3173 111.622 10.496C112.528 9.664 113.6 9.248 114.838 9.248C115.456 9.248 116.08 9.376 116.71 9.632C117.35 9.888 117.91 10.2667 118.39 10.768L117.142 12.4C116.864 12.0693 116.523 11.8133 116.118 11.632C115.723 11.4507 115.328 11.36 114.934 11.36C114.304 11.36 113.76 11.568 113.302 11.984C112.854 12.3893 112.63 12.96 112.63 13.696C112.63 14.4213 112.854 14.9867 113.302 15.392C113.76 15.7973 114.294 16 114.902 16ZM122.586 18H120.186V6.128H122.586V12.224L125.258 9.376H128.282L125.002 12.864L128.41 18H125.562L123.37 14.704L122.586 15.52V18ZM136.984 8.896V9.472H139.064V11.2H136.984V18H134.568V11.2H133.56V9.472H134.568V8.944C134.568 8.00533 134.851 7.264 135.416 6.72C135.992 6.16533 136.702 5.888 137.544 5.888C138.398 5.888 139.171 6.208 139.864 6.848L139 8.464C138.648 8.05867 138.259 7.856 137.832 7.856C137.587 7.856 137.384 7.94667 137.224 8.128C137.064 8.29867 136.984 8.55467 136.984 8.896ZM142.375 13.696C142.375 14.4 142.572 14.976 142.967 15.424C143.372 15.8613 143.884 16.08 144.503 16.08C145.132 16.08 145.644 15.8613 146.039 15.424C146.444 14.976 146.647 14.4 146.647 13.696C146.647 12.992 146.444 12.416 146.039 11.968C145.644 11.52 145.132 11.296 144.503 11.296C143.884 11.296 143.372 11.52 142.967 11.968C142.572 12.416 142.375 12.992 142.375 13.696ZM149.063 13.696C149.063 14.944 148.631 15.9947 147.767 16.848C146.903 17.7013 145.815 18.128 144.503 18.128C143.201 18.128 142.119 17.7013 141.255 16.848C140.391 15.9947 139.959 14.944 139.959 13.696C139.959 12.448 140.391 11.3973 141.255 10.544C142.119 9.68 143.201 9.248 144.503 9.248C145.815 9.248 146.903 9.68 147.767 10.544C148.631 11.3973 149.063 12.448 149.063 13.696ZM152.682 9.392L154.154 11.696L155.674 9.392H158.49L155.53 13.6L158.602 18H155.738L154.058 15.632L152.426 18H149.658L152.666 13.616L149.818 9.392H152.682ZM165.18 18.16V9.376H167.58V18.352C167.58 19.2907 167.292 20.032 166.716 20.576C166.151 21.12 165.452 21.392 164.62 21.392C163.799 21.392 163.015 21.0507 162.268 20.368L163.372 18.592C163.692 18.9653 164.049 19.152 164.444 19.152C164.657 19.152 164.833 19.0667 164.972 18.896C165.111 18.736 165.18 18.4907 165.18 18.16ZM165.372 8.304C165.105 8.02667 164.972 7.69067 164.972 7.296C164.972 6.90133 165.105 6.57067 165.372 6.304C165.649 6.02667 165.985 5.888 166.38 5.888C166.775 5.888 167.105 6.02667 167.372 6.304C167.649 6.57067 167.788 6.90133 167.788 7.296C167.788 7.69067 167.649 8.02667 167.372 8.304C167.105 8.57067 166.775 8.704 166.38 8.704C165.985 8.704 165.649 8.57067 165.372 8.304ZM175.501 14.032V9.392H177.917V18H175.501V16.864C174.903 17.7067 174.13 18.128 173.181 18.128C172.242 18.128 171.453 17.8347 170.812 17.248C170.173 16.6507 169.853 15.7707 169.853 14.608V9.392H172.269V14.08C172.269 15.4027 172.754 16.064 173.725 16.064C174.205 16.064 174.621 15.8933 174.973 15.552C175.325 15.2 175.501 14.6933 175.501 14.032ZM188.187 13.36V18H185.771V13.296C185.771 12.6133 185.664 12.112 185.451 11.792C185.248 11.472 184.912 11.312 184.443 11.312C183.984 11.312 183.574 11.488 183.211 11.84C182.859 12.1813 182.683 12.688 182.683 13.36V18H180.283V9.392H182.683V10.368C183.344 9.62133 184.102 9.248 184.955 9.248C185.499 9.248 185.99 9.408 186.427 9.728C186.875 10.048 187.211 10.4373 187.435 10.896C187.766 10.3733 188.208 9.968 188.763 9.68C189.328 9.392 189.894 9.248 190.459 9.248C191.472 9.248 192.288 9.552 192.907 10.16C193.526 10.7573 193.835 11.6267 193.835 12.768V18H191.419V13.296C191.419 11.9733 190.934 11.312 189.963 11.312C189.483 11.312 189.067 11.488 188.715 11.84C188.363 12.1813 188.187 12.688 188.187 13.36ZM201.125 9.248C202.128 9.248 203.019 9.66933 203.797 10.512C204.587 11.344 204.981 12.3947 204.981 13.664C204.981 14.9333 204.587 15.9947 203.797 16.848C203.019 17.7013 202.101 18.128 201.045 18.128C200 18.128 199.157 17.7067 198.517 16.864V21.104H196.117V9.392H198.517V10.352C199.253 9.616 200.123 9.248 201.125 9.248ZM198.485 13.712C198.485 14.4053 198.677 14.976 199.061 15.424C199.456 15.8613 199.931 16.08 200.485 16.08C201.04 16.08 201.525 15.8613 201.941 15.424C202.357 14.976 202.565 14.4053 202.565 13.712C202.565 13.0187 202.363 12.4373 201.957 11.968C201.552 11.4987 201.067 11.264 200.501 11.264C199.936 11.264 199.456 11.4987 199.061 11.968C198.677 12.4267 198.485 13.008 198.485 13.712ZM213.275 15.328C213.275 16.1707 212.961 16.848 212.331 17.36C211.713 17.872 210.923 18.128 209.963 18.128C209.323 18.128 208.657 18.016 207.963 17.792C207.27 17.5573 206.646 17.216 206.091 16.768L207.147 15.264C208.043 15.9573 208.998 16.304 210.011 16.304C210.321 16.304 210.566 16.2453 210.747 16.128C210.929 16 211.019 15.8347 211.019 15.632C211.019 15.4293 210.891 15.2427 210.635 15.072C210.39 14.9013 210.027 14.7413 209.547 14.592C209.078 14.4427 208.715 14.3147 208.459 14.208C208.214 14.1013 207.931 13.9467 207.611 13.744C206.961 13.3387 206.635 12.7413 206.635 11.952C206.635 11.152 206.955 10.5013 207.595 10C208.235 9.49867 209.062 9.248 210.075 9.248C211.089 9.248 212.102 9.58933 213.115 10.272L212.219 11.872C211.473 11.36 210.726 11.104 209.979 11.104C209.243 11.104 208.875 11.3067 208.875 11.712C208.875 11.936 208.993 12.112 209.227 12.24C209.462 12.368 209.851 12.5173 210.395 12.688C210.939 12.8587 211.323 12.992 211.547 13.088C211.782 13.1733 212.059 13.312 212.379 13.504C212.977 13.8667 213.275 14.4747 213.275 15.328ZM221.447 13.696C221.447 14.4 221.644 14.976 222.039 15.424C222.444 15.8613 222.956 16.08 223.575 16.08C224.204 16.08 224.716 15.8613 225.111 15.424C225.516 14.976 225.719 14.4 225.719 13.696C225.719 12.992 225.516 12.416 225.111 11.968C224.716 11.52 224.204 11.296 223.575 11.296C222.956 11.296 222.444 11.52 222.039 11.968C221.644 12.416 221.447 12.992 221.447 13.696ZM228.135 13.696C228.135 14.944 227.703 15.9947 226.839 16.848C225.975 17.7013 224.887 18.128 223.575 18.128C222.273 18.128 221.191 17.7013 220.327 16.848C219.463 15.9947 219.031 14.944 219.031 13.696C219.031 12.448 219.463 11.3973 220.327 10.544C221.191 9.68 222.273 9.248 223.575 9.248C224.887 9.248 225.975 9.68 226.839 10.544C227.703 11.3973 228.135 12.448 228.135 13.696ZM232.15 18L228.742 9.376H231.238L233.382 14.8L235.526 9.376H238.022L234.614 18H232.15ZM246.761 16.752C245.79 17.6693 244.649 18.128 243.337 18.128C242.035 18.128 240.958 17.728 240.105 16.928C239.251 16.1173 238.825 15.0347 238.825 13.68C238.825 12.3253 239.257 11.248 240.121 10.448C240.995 9.648 242.025 9.248 243.209 9.248C244.393 9.248 245.395 9.60533 246.217 10.32C247.049 11.0347 247.465 12.016 247.465 13.264V14.544H241.193C241.267 15.0133 241.513 15.3973 241.929 15.696C242.345 15.9947 242.814 16.144 243.337 16.144C244.179 16.144 244.873 15.8613 245.417 15.296L246.761 16.752ZM245.033 12.832C244.979 12.32 244.787 11.9253 244.457 11.648C244.126 11.3707 243.721 11.232 243.241 11.232C242.771 11.232 242.339 11.376 241.945 11.664C241.55 11.952 241.321 12.3413 241.257 12.832H245.033ZM253.823 11.504C253.109 11.504 252.575 11.76 252.223 12.272C251.871 12.7733 251.695 13.44 251.695 14.272V18H249.295V9.392H251.695V10.528C252.005 10.176 252.389 9.87733 252.847 9.632C253.317 9.38667 253.791 9.25867 254.271 9.248L254.287 11.504H253.823ZM263.156 11.12V14.976C263.156 15.3067 263.242 15.568 263.412 15.76C263.583 15.9413 263.786 16.032 264.02 16.032C264.468 16.032 264.847 15.8293 265.156 15.424L266.052 17.104C265.306 17.7867 264.516 18.128 263.684 18.128C262.863 18.128 262.164 17.856 261.588 17.312C261.023 16.768 260.74 16.0267 260.74 15.088V11.12H259.732V9.392H260.74V6.816H263.156V9.392H265.236V11.12H263.156ZM269.839 13.36V18H267.439V6.128H269.839V10.352C270.564 9.616 271.375 9.248 272.271 9.248C273.178 9.248 273.94 9.568 274.559 10.208C275.178 10.848 275.487 11.7013 275.487 12.768V18H273.087V13.296C273.087 11.9733 272.602 11.312 271.631 11.312C271.151 11.312 270.73 11.488 270.367 11.84C270.015 12.1813 269.839 12.688 269.839 13.36ZM285.214 16.752C284.243 17.6693 283.102 18.128 281.79 18.128C280.489 18.128 279.411 17.728 278.558 16.928C277.705 16.1173 277.278 15.0347 277.278 13.68C277.278 12.3253 277.71 11.248 278.574 10.448C279.449 9.648 280.478 9.248 281.662 9.248C282.846 9.248 283.849 9.60533 284.67 10.32C285.502 11.0347 285.918 12.016 285.918 13.264V14.544H279.646C279.721 15.0133 279.966 15.3973 280.382 15.696C280.798 15.9947 281.267 16.144 281.79 16.144C282.633 16.144 283.326 15.8613 283.87 15.296L285.214 16.752ZM283.486 12.832C283.433 12.32 283.241 11.9253 282.91 11.648C282.579 11.3707 282.174 11.232 281.694 11.232C281.225 11.232 280.793 11.376 280.398 11.664C280.003 11.952 279.774 12.3413 279.71 12.832H283.486ZM294.467 18H292.067V6.128H294.467V18ZM304.151 18H301.895V16.96C301.276 17.7387 300.508 18.128 299.591 18.128C298.684 18.128 297.922 17.8667 297.303 17.344C296.684 16.8107 296.375 16.1067 296.375 15.232C296.375 14.3467 296.695 13.6853 297.335 13.248C297.975 12.8107 298.85 12.592 299.959 12.592H301.751V12.544C301.751 11.6267 301.266 11.168 300.295 11.168C299.879 11.168 299.436 11.2533 298.967 11.424C298.508 11.584 298.119 11.7867 297.799 12.032L296.727 10.48C297.858 9.65867 299.148 9.248 300.599 9.248C301.644 9.248 302.498 9.50933 303.159 10.032C303.82 10.5547 304.151 11.3813 304.151 12.512V18ZM301.735 14.72V14.304H300.231C299.271 14.304 298.791 14.6027 298.791 15.2C298.791 15.5093 298.903 15.7493 299.127 15.92C299.362 16.08 299.692 16.16 300.119 16.16C300.546 16.16 300.919 16.032 301.239 15.776C301.57 15.5093 301.735 15.1573 301.735 14.72ZM306.279 11.376V9.392H313.223V11.264L309.047 16H313.463V18H305.975V16.016L310.039 11.376H306.279ZM316.871 21.392C316.028 21.392 315.234 21.0507 314.487 20.368L315.575 18.592C315.98 18.9867 316.396 19.184 316.823 19.184C317.047 19.184 317.239 19.072 317.399 18.848C317.559 18.6347 317.639 18.4053 317.639 18.16C317.639 17.9147 316.53 14.992 314.311 9.392H316.871L318.967 14.752L321.063 9.392H323.623L319.623 19.536C319.388 20.1227 319.02 20.576 318.519 20.896C318.028 21.2267 317.479 21.392 316.871 21.392ZM56.576 42.128C55.5627 42.128 54.656 41.696 53.856 40.832C53.056 39.968 52.656 38.896 52.656 37.616C52.656 36.336 53.0453 35.2907 53.824 34.48C54.6027 33.6587 55.5147 33.248 56.56 33.248C57.6053 33.248 58.4587 33.616 59.12 34.352V30.128H61.52V42H59.12V40.864C58.448 41.7067 57.6 42.128 56.576 42.128ZM55.072 37.712C55.072 38.4053 55.28 38.976 55.696 39.424C56.112 39.8613 56.5973 40.08 57.152 40.08C57.7067 40.08 58.176 39.8613 58.56 39.424C58.9547 38.976 59.152 38.4053 59.152 37.712C59.152 37.008 58.9547 36.4267 58.56 35.968C58.176 35.4987 57.7013 35.264 57.136 35.264C56.5707 35.264 56.0853 35.4987 55.68 35.968C55.2747 36.4373 55.072 37.0187 55.072 37.712ZM65.8123 37.696C65.8123 38.4 66.0096 38.976 66.4043 39.424C66.8096 39.8613 67.3216 40.08 67.9403 40.08C68.5696 40.08 69.0816 39.8613 69.4763 39.424C69.8816 38.976 70.0843 38.4 70.0843 37.696C70.0843 36.992 69.8816 36.416 69.4763 35.968C69.0816 35.52 68.5696 35.296 67.9403 35.296C67.3216 35.296 66.8096 35.52 66.4043 35.968C66.0096 36.416 65.8123 36.992 65.8123 37.696ZM72.5003 37.696C72.5003 38.944 72.0683 39.9947 71.2043 40.848C70.3403 41.7013 69.2523 42.128 67.9403 42.128C66.6389 42.128 65.5563 41.7013 64.6923 40.848C63.8283 39.9947 63.3963 38.944 63.3963 37.696C63.3963 36.448 63.8283 35.3973 64.6923 34.544C65.5563 33.68 66.6389 33.248 67.9403 33.248C69.2523 33.248 70.3403 33.68 71.2043 34.544C72.0683 35.3973 72.5003 36.448 72.5003 37.696ZM80.4149 37.52C80.4149 36.8267 80.2229 36.2827 79.8389 35.888C79.4549 35.4933 78.9802 35.296 78.4149 35.296C77.8495 35.296 77.3589 35.4933 76.9429 35.888C76.5375 36.2827 76.3349 36.8213 76.3349 37.504C76.3349 38.1867 76.5322 38.7413 76.9269 39.168C77.3322 39.584 77.8229 39.792 78.3989 39.792C78.9749 39.792 79.4549 39.584 79.8389 39.168C80.2229 38.752 80.4149 38.2027 80.4149 37.52ZM80.7509 40.544C79.9935 41.3867 79.0495 41.808 77.9189 41.808C76.7989 41.808 75.8495 41.4293 75.0709 40.672C74.3029 39.904 73.9189 38.8853 73.9189 37.616C73.9189 36.336 74.3135 35.2907 75.1029 34.48C75.9029 33.6587 76.8149 33.248 77.8389 33.248C78.8629 33.248 79.7109 33.6693 80.3829 34.512V33.376H82.7829V40.88C82.7829 41.648 82.6495 42.3307 82.3829 42.928C82.1162 43.5253 81.7589 43.9947 81.3109 44.336C80.4255 45.04 79.3802 45.392 78.1749 45.392C77.5349 45.392 76.8789 45.2853 76.2069 45.072C75.5455 44.8693 74.9642 44.576 74.4629 44.192L75.3909 42.384C76.1802 42.9813 77.0122 43.28 77.8869 43.28C78.7722 43.28 79.4709 43.0613 79.9829 42.624C80.4949 42.1867 80.7509 41.4933 80.7509 40.544Z" fill="#252B42"/>
<path d="M55.304 61.74H52.056V60.2H60.372V61.74H57.124V70H55.304V61.74ZM66.0119 62.44C66.9545 62.44 67.7105 62.7153 68.2799 63.266C68.8492 63.8167 69.1339 64.6333 69.1339 65.716V70H67.3839V65.94C67.3839 65.2867 67.2299 64.7967 66.9219 64.47C66.6139 64.134 66.1752 63.966 65.6059 63.966C64.9619 63.966 64.4532 64.162 64.0799 64.554C63.7065 64.9367 63.5199 65.492 63.5199 66.22V70H61.7699V59.612H63.5199V63.392C63.8092 63.084 64.1639 62.8507 64.5839 62.692C65.0132 62.524 65.4892 62.44 66.0119 62.44ZM71.5539 62.524H73.3039V70H71.5539V62.524ZM72.4359 61.292C72.1185 61.292 71.8525 61.194 71.6379 60.998C71.4232 60.7927 71.3159 60.5407 71.3159 60.242C71.3159 59.9433 71.4232 59.696 71.6379 59.5C71.8525 59.2947 72.1185 59.192 72.4359 59.192C72.7532 59.192 73.0192 59.29 73.2339 59.486C73.4485 59.6727 73.5559 59.9107 73.5559 60.2C73.5559 60.508 73.4485 60.7693 73.2339 60.984C73.0285 61.1893 72.7625 61.292 72.4359 61.292ZM80.0427 62.44C80.9854 62.44 81.7414 62.7153 82.3107 63.266C82.8801 63.8167 83.1647 64.6333 83.1647 65.716V70H81.4147V65.94C81.4147 65.2867 81.2607 64.7967 80.9527 64.47C80.6447 64.134 80.2061 63.966 79.6367 63.966C78.9927 63.966 78.4841 64.162 78.1107 64.554C77.7374 64.9367 77.5507 65.492 77.5507 66.22V70H75.8007V62.524H77.4667V63.49C77.7561 63.1447 78.1201 62.8833 78.5587 62.706C78.9974 62.5287 79.4921 62.44 80.0427 62.44ZM93.0731 62.524V68.866C93.0731 71.498 91.7291 72.814 89.0411 72.814C88.3224 72.814 87.6411 72.7207 86.9971 72.534C86.3531 72.3567 85.8211 72.0953 85.4011 71.75L86.1851 70.434C86.5117 70.7047 86.9224 70.9193 87.4171 71.078C87.9211 71.246 88.4297 71.33 88.9431 71.33C89.7644 71.33 90.3664 71.1433 90.7491 70.77C91.1317 70.3967 91.3231 69.8273 91.3231 69.062V68.67C91.0244 68.9967 90.6604 69.244 90.2311 69.412C89.8017 69.58 89.3304 69.664 88.8171 69.664C88.1077 69.664 87.4637 69.5147 86.8851 69.216C86.3157 68.908 85.8631 68.4787 85.5271 67.928C85.2004 67.3773 85.0371 66.7473 85.0371 66.038C85.0371 65.3287 85.2004 64.7033 85.5271 64.162C85.8631 63.6113 86.3157 63.1867 86.8851 62.888C87.4637 62.5893 88.1077 62.44 88.8171 62.44C89.3584 62.44 89.8484 62.5287 90.2871 62.706C90.7351 62.8833 91.1084 63.154 91.4071 63.518V62.524H93.0731ZM89.0831 68.18C89.7457 68.18 90.2871 67.984 90.7071 67.592C91.1364 67.1907 91.3511 66.6727 91.3511 66.038C91.3511 65.4127 91.1364 64.904 90.7071 64.512C90.2871 64.12 89.7457 63.924 89.0831 63.924C88.4111 63.924 87.8604 64.12 87.4311 64.512C87.0111 64.904 86.8011 65.4127 86.8011 66.038C86.8011 66.6727 87.0111 67.1907 87.4311 67.592C87.8604 67.984 88.4111 68.18 89.0831 68.18ZM97.8838 70.098C97.2771 70.098 96.6844 70.0187 96.1058 69.86C95.5271 69.7013 95.0651 69.5007 94.7198 69.258L95.3918 67.928C95.7278 68.152 96.1291 68.334 96.5958 68.474C97.0718 68.6047 97.5384 68.67 97.9958 68.67C99.0411 68.67 99.5638 68.3947 99.5638 67.844C99.5638 67.5827 99.4284 67.4007 99.1578 67.298C98.8964 67.1953 98.4718 67.0973 97.8838 67.004C97.2678 66.9107 96.7638 66.8033 96.3718 66.682C95.9891 66.5607 95.6531 66.3507 95.3638 66.052C95.0838 65.744 94.9438 65.3193 94.9438 64.778C94.9438 64.0687 95.2378 63.504 95.8258 63.084C96.4231 62.6547 97.2258 62.44 98.2338 62.44C98.7471 62.44 99.2604 62.5007 99.7738 62.622C100.287 62.734 100.707 62.888 101.034 63.084L100.362 64.414C99.7271 64.0407 99.0131 63.854 98.2198 63.854C97.7064 63.854 97.3144 63.9333 97.0438 64.092C96.7824 64.2413 96.6518 64.442 96.6518 64.694C96.6518 64.974 96.7918 65.1747 97.0718 65.296C97.3611 65.408 97.8044 65.5153 98.4018 65.618C98.9991 65.7113 99.4891 65.8187 99.8718 65.94C100.254 66.0613 100.581 66.2667 100.852 66.556C101.132 66.8453 101.272 67.256 101.272 67.788C101.272 68.488 100.968 69.048 100.362 69.468C99.7551 69.888 98.9291 70.098 97.8838 70.098ZM110.408 70.098C109.652 70.098 108.971 69.9347 108.364 69.608C107.757 69.2813 107.281 68.8287 106.936 68.25C106.6 67.662 106.432 66.9993 106.432 66.262C106.432 65.5247 106.6 64.8667 106.936 64.288C107.281 63.7093 107.757 63.2567 108.364 62.93C108.971 62.6033 109.652 62.44 110.408 62.44C111.173 62.44 111.859 62.6033 112.466 62.93C113.073 63.2567 113.544 63.7093 113.88 64.288C114.225 64.8667 114.398 65.5247 114.398 66.262C114.398 66.9993 114.225 67.662 113.88 68.25C113.544 68.8287 113.073 69.2813 112.466 69.608C111.859 69.9347 111.173 70.098 110.408 70.098ZM110.408 68.6C111.052 68.6 111.584 68.3853 112.004 67.956C112.424 67.5267 112.634 66.962 112.634 66.262C112.634 65.562 112.424 64.9973 112.004 64.568C111.584 64.1387 111.052 63.924 110.408 63.924C109.764 63.924 109.232 64.1387 108.812 64.568C108.401 64.9973 108.196 65.562 108.196 66.262C108.196 66.962 108.401 67.5267 108.812 67.956C109.232 68.3853 109.764 68.6 110.408 68.6ZM120.513 62.44C121.456 62.44 122.212 62.7153 122.781 63.266C123.351 63.8167 123.635 64.6333 123.635 65.716V70H121.885V65.94C121.885 65.2867 121.731 64.7967 121.423 64.47C121.115 64.134 120.677 63.966 120.107 63.966C119.463 63.966 118.955 64.162 118.581 64.554C118.208 64.9367 118.021 65.492 118.021 66.22V70H116.271V62.524H117.937V63.49C118.227 63.1447 118.591 62.8833 119.029 62.706C119.468 62.5287 119.963 62.44 120.513 62.44ZM132.981 62.44C134.082 62.44 134.922 62.706 135.501 63.238C136.089 63.7607 136.383 64.554 136.383 65.618V70H134.731V69.09C134.516 69.4167 134.208 69.6687 133.807 69.846C133.415 70.014 132.939 70.098 132.379 70.098C131.819 70.098 131.329 70.0047 130.909 69.818C130.489 69.622 130.162 69.356 129.929 69.02C129.705 68.6747 129.593 68.2873 129.593 67.858C129.593 67.186 129.84 66.6493 130.335 66.248C130.839 65.8373 131.627 65.632 132.701 65.632H134.633V65.52C134.633 64.9973 134.474 64.596 134.157 64.316C133.849 64.036 133.387 63.896 132.771 63.896C132.351 63.896 131.935 63.9613 131.525 64.092C131.123 64.2227 130.783 64.4047 130.503 64.638L129.817 63.364C130.209 63.0653 130.68 62.8367 131.231 62.678C131.781 62.5193 132.365 62.44 132.981 62.44ZM132.743 68.824C133.181 68.824 133.569 68.726 133.905 68.53C134.25 68.3247 134.493 68.0353 134.633 67.662V66.794H132.827C131.819 66.794 131.315 67.1253 131.315 67.788C131.315 68.1053 131.441 68.3573 131.693 68.544C131.945 68.7307 132.295 68.824 132.743 68.824ZM149.898 62.524L146.692 70H144.886L141.68 62.524H143.5L145.824 68.068L148.218 62.524H149.898ZM158.014 66.304C158.014 66.4253 158.005 66.598 157.986 66.822H152.12C152.223 67.3727 152.489 67.8113 152.918 68.138C153.357 68.4553 153.898 68.614 154.542 68.614C155.364 68.614 156.04 68.3433 156.572 67.802L157.51 68.88C157.174 69.2813 156.75 69.5847 156.236 69.79C155.723 69.9953 155.144 70.098 154.5 70.098C153.679 70.098 152.956 69.9347 152.33 69.608C151.705 69.2813 151.22 68.8287 150.874 68.25C150.538 67.662 150.37 66.9993 150.37 66.262C150.37 65.534 150.534 64.8807 150.86 64.302C151.196 63.714 151.658 63.2567 152.246 62.93C152.834 62.6033 153.497 62.44 154.234 62.44C154.962 62.44 155.611 62.6033 156.18 62.93C156.759 63.2473 157.207 63.7 157.524 64.288C157.851 64.8667 158.014 65.5387 158.014 66.304ZM154.234 63.84C153.674 63.84 153.198 64.008 152.806 64.344C152.424 64.6707 152.19 65.1093 152.106 65.66H156.348C156.274 65.1187 156.045 64.68 155.662 64.344C155.28 64.008 154.804 63.84 154.234 63.84ZM161.561 63.616C162.065 62.832 162.952 62.44 164.221 62.44V64.106C164.072 64.078 163.937 64.064 163.815 64.064C163.134 64.064 162.602 64.2647 162.219 64.666C161.837 65.058 161.645 65.6273 161.645 66.374V70H159.895V62.524H161.561V63.616ZM173.179 62.524L169.679 70.602C169.353 71.414 168.956 71.9833 168.489 72.31C168.023 72.646 167.458 72.814 166.795 72.814C166.422 72.814 166.053 72.7533 165.689 72.632C165.325 72.5107 165.027 72.3427 164.793 72.128L165.493 70.84C165.661 70.9987 165.857 71.1247 166.081 71.218C166.315 71.3113 166.548 71.358 166.781 71.358C167.089 71.358 167.341 71.2787 167.537 71.12C167.743 70.9613 167.929 70.6953 168.097 70.322L168.223 70.028L164.961 62.524H166.781L169.133 68.054L171.499 62.524H173.179ZM180.852 70.098C180.245 70.098 179.653 70.0187 179.074 69.86C178.495 69.7013 178.033 69.5007 177.688 69.258L178.36 67.928C178.696 68.152 179.097 68.334 179.564 68.474C180.04 68.6047 180.507 68.67 180.964 68.67C182.009 68.67 182.532 68.3947 182.532 67.844C182.532 67.5827 182.397 67.4007 182.126 67.298C181.865 67.1953 181.44 67.0973 180.852 67.004C180.236 66.9107 179.732 66.8033 179.34 66.682C178.957 66.5607 178.621 66.3507 178.332 66.052C178.052 65.744 177.912 65.3193 177.912 64.778C177.912 64.0687 178.206 63.504 178.794 63.084C179.391 62.6547 180.194 62.44 181.202 62.44C181.715 62.44 182.229 62.5007 182.742 62.622C183.255 62.734 183.675 62.888 184.002 63.084L183.33 64.414C182.695 64.0407 181.981 63.854 181.188 63.854C180.675 63.854 180.283 63.9333 180.012 64.092C179.751 64.2413 179.62 64.442 179.62 64.694C179.62 64.974 179.76 65.1747 180.04 65.296C180.329 65.408 180.773 65.5153 181.37 65.618C181.967 65.7113 182.457 65.8187 182.84 65.94C183.223 66.0613 183.549 66.2667 183.82 66.556C184.1 66.8453 184.24 67.256 184.24 67.788C184.24 68.488 183.937 69.048 183.33 69.468C182.723 69.888 181.897 70.098 180.852 70.098ZM195.383 62.44C196.326 62.44 197.073 62.7153 197.623 63.266C198.174 63.8073 198.449 64.624 198.449 65.716V70H196.699V65.94C196.699 65.2867 196.555 64.7967 196.265 64.47C195.976 64.134 195.561 63.966 195.019 63.966C194.431 63.966 193.96 64.162 193.605 64.554C193.251 64.9367 193.073 65.4873 193.073 66.206V70H191.323V65.94C191.323 65.2867 191.179 64.7967 190.889 64.47C190.6 64.134 190.185 63.966 189.643 63.966C189.046 63.966 188.57 64.1573 188.215 64.54C187.87 64.9227 187.697 65.478 187.697 66.206V70H185.947V62.524H187.613V63.476C187.893 63.14 188.243 62.8833 188.663 62.706C189.083 62.5287 189.55 62.44 190.063 62.44C190.623 62.44 191.118 62.5473 191.547 62.762C191.986 62.9673 192.331 63.2753 192.583 63.686C192.891 63.294 193.288 62.9907 193.773 62.776C194.259 62.552 194.795 62.44 195.383 62.44ZM203.742 62.44C204.843 62.44 205.683 62.706 206.262 63.238C206.85 63.7607 207.144 64.554 207.144 65.618V70H205.492V69.09C205.277 69.4167 204.969 69.6687 204.568 69.846C204.176 70.014 203.7 70.098 203.14 70.098C202.58 70.098 202.09 70.0047 201.67 69.818C201.25 69.622 200.923 69.356 200.69 69.02C200.466 68.6747 200.354 68.2873 200.354 67.858C200.354 67.186 200.601 66.6493 201.096 66.248C201.6 65.8373 202.388 65.632 203.462 65.632H205.394V65.52C205.394 64.9973 205.235 64.596 204.918 64.316C204.61 64.036 204.148 63.896 203.532 63.896C203.112 63.896 202.696 63.9613 202.286 64.092C201.884 64.2227 201.544 64.4047 201.264 64.638L200.578 63.364C200.97 63.0653 201.441 62.8367 201.992 62.678C202.542 62.5193 203.126 62.44 203.742 62.44ZM203.504 68.824C203.942 68.824 204.33 68.726 204.666 68.53C205.011 68.3247 205.254 68.0353 205.394 67.662V66.794H203.588C202.58 66.794 202.076 67.1253 202.076 67.788C202.076 68.1053 202.202 68.3573 202.454 68.544C202.706 68.7307 203.056 68.824 203.504 68.824ZM209.589 59.612H211.339V70H209.589V59.612ZM213.836 59.612H215.586V70H213.836V59.612ZM224.462 70.098C223.856 70.098 223.263 70.0187 222.684 69.86C222.106 69.7013 221.644 69.5007 221.298 69.258L221.97 67.928C222.306 68.152 222.708 68.334 223.174 68.474C223.65 68.6047 224.117 68.67 224.574 68.67C225.62 68.67 226.142 68.3947 226.142 67.844C226.142 67.5827 226.007 67.4007 225.736 67.298C225.475 67.1953 225.05 67.0973 224.462 67.004C223.846 66.9107 223.342 66.8033 222.95 66.682C222.568 66.5607 222.232 66.3507 221.942 66.052C221.662 65.744 221.522 65.3193 221.522 64.778C221.522 64.0687 221.816 63.504 222.404 63.084C223.002 62.6547 223.804 62.44 224.812 62.44C225.326 62.44 225.839 62.5007 226.352 62.622C226.866 62.734 227.286 62.888 227.612 63.084L226.94 64.414C226.306 64.0407 225.592 63.854 224.798 63.854C224.285 63.854 223.893 63.9333 223.622 64.092C223.361 64.2413 223.23 64.442 223.23 64.694C223.23 64.974 223.37 65.1747 223.65 65.296C223.94 65.408 224.383 65.5153 224.98 65.618C225.578 65.7113 226.068 65.8187 226.45 65.94C226.833 66.0613 227.16 66.2667 227.43 66.556C227.71 66.8453 227.85 67.256 227.85 67.788C227.85 68.488 227.547 69.048 226.94 69.468C226.334 69.888 225.508 70.098 224.462 70.098ZM232.987 70.098C232.213 70.098 231.517 69.9347 230.901 69.608C230.285 69.2813 229.805 68.8287 229.459 68.25C229.114 67.662 228.941 66.9993 228.941 66.262C228.941 65.5247 229.114 64.8667 229.459 64.288C229.805 63.7093 230.281 63.2567 230.887 62.93C231.503 62.6033 232.203 62.44 232.987 62.44C233.725 62.44 234.369 62.5893 234.919 62.888C235.479 63.1867 235.899 63.616 236.179 64.176L234.835 64.96C234.621 64.6147 234.35 64.358 234.023 64.19C233.706 64.0127 233.356 63.924 232.973 63.924C232.32 63.924 231.779 64.1387 231.349 64.568C230.92 64.988 230.705 65.5527 230.705 66.262C230.705 66.9713 230.915 67.5407 231.335 67.97C231.765 68.39 232.311 68.6 232.973 68.6C233.356 68.6 233.706 68.516 234.023 68.348C234.35 68.1707 234.621 67.9093 234.835 67.564L236.179 68.348C235.89 68.908 235.465 69.342 234.905 69.65C234.355 69.9487 233.715 70.098 232.987 70.098ZM240.748 62.44C241.849 62.44 242.689 62.706 243.268 63.238C243.856 63.7607 244.15 64.554 244.15 65.618V70H242.498V69.09C242.283 69.4167 241.975 69.6687 241.574 69.846C241.182 70.014 240.706 70.098 240.146 70.098C239.586 70.098 239.096 70.0047 238.676 69.818C238.256 69.622 237.929 69.356 237.696 69.02C237.472 68.6747 237.36 68.2873 237.36 67.858C237.36 67.186 237.607 66.6493 238.102 66.248C238.606 65.8373 239.395 65.632 240.468 65.632H242.4V65.52C242.4 64.9973 242.241 64.596 241.924 64.316C241.616 64.036 241.154 63.896 240.538 63.896C240.118 63.896 239.703 63.9613 239.292 64.092C238.891 64.2227 238.55 64.4047 238.27 64.638L237.584 63.364C237.976 63.0653 238.447 62.8367 238.998 62.678C239.549 62.5193 240.132 62.44 240.748 62.44ZM240.51 68.824C240.949 68.824 241.336 68.726 241.672 68.53C242.017 68.3247 242.26 68.0353 242.4 67.662V66.794H240.594C239.586 66.794 239.082 67.1253 239.082 67.788C239.082 68.1053 239.208 68.3573 239.46 68.544C239.712 68.7307 240.062 68.824 240.51 68.824ZM246.596 59.612H248.346V70H246.596V59.612ZM257.871 66.304C257.871 66.4253 257.862 66.598 257.843 66.822H251.977C252.08 67.3727 252.346 67.8113 252.775 68.138C253.214 68.4553 253.755 68.614 254.399 68.614C255.22 68.614 255.897 68.3433 256.429 67.802L257.367 68.88C257.031 69.2813 256.606 69.5847 256.093 69.79C255.58 69.9953 255.001 70.098 254.357 70.098C253.536 70.098 252.812 69.9347 252.187 69.608C251.562 69.2813 251.076 68.8287 250.731 68.25C250.395 67.662 250.227 66.9993 250.227 66.262C250.227 65.534 250.39 64.8807 250.717 64.302C251.053 63.714 251.515 63.2567 252.103 62.93C252.691 62.6033 253.354 62.44 254.091 62.44C254.819 62.44 255.468 62.6033 256.037 62.93C256.616 63.2473 257.064 63.7 257.381 64.288C257.708 64.8667 257.871 65.5387 257.871 66.304ZM254.091 63.84C253.531 63.84 253.055 64.008 252.663 64.344C252.28 64.6707 252.047 65.1093 251.963 65.66H256.205C256.13 65.1187 255.902 64.68 255.519 64.344C255.136 64.008 254.66 63.84 254.091 63.84ZM264.381 70.098C264.064 70.098 263.793 69.9907 263.569 69.776C263.345 69.552 263.233 69.272 263.233 68.936C263.233 68.5907 263.34 68.3107 263.555 68.096C263.779 67.8813 264.054 67.774 264.381 67.774C264.708 67.774 264.978 67.8813 265.193 68.096C265.417 68.3107 265.529 68.5907 265.529 68.936C265.529 69.272 265.417 69.552 265.193 69.776C264.969 69.9907 264.698 70.098 264.381 70.098ZM267.999 70.098C267.682 70.098 267.411 69.9907 267.187 69.776C266.963 69.552 266.851 69.272 266.851 68.936C266.851 68.5907 266.958 68.3107 267.173 68.096C267.397 67.8813 267.672 67.774 267.999 67.774C268.326 67.774 268.596 67.8813 268.811 68.096C269.035 68.3107 269.147 68.5907 269.147 68.936C269.147 69.272 269.035 69.552 268.811 69.776C268.587 69.9907 268.316 70.098 267.999 70.098ZM271.617 70.098C271.3 70.098 271.029 69.9907 270.805 69.776C270.581 69.552 270.469 69.272 270.469 68.936C270.469 68.5907 270.576 68.3107 270.791 68.096C271.015 67.8813 271.29 67.774 271.617 67.774C271.944 67.774 272.214 67.8813 272.429 68.096C272.653 68.3107 272.765 68.5907 272.765 68.936C272.765 69.272 272.653 69.552 272.429 69.776C272.205 69.9907 271.934 70.098 271.617 70.098Z" fill="#737373"/>
</svg>
