<svg width="231" height="209" viewBox="0 0 231 209" fill="none" xmlns="http://www.w3.org/2000/svg">
<rect width="230" height="209" transform="translate(0.5)" fill="white"/>
<g clip-path="url(#clip0_965_126)">
<path d="M135.151 52.2819C134.575 52.2861 134.005 52.3959 133.468 52.6061L127.727 47.8214C127.869 47.2998 127.969 46.7587 127.969 46.1883C127.969 42.81 125.303 40.0947 121.985 40.0947C118.667 40.0947 116 42.81 116 46.1883C116 47.1536 116.24 48.053 116.627 48.8622L109.664 57.2421C109.385 57.189 109.103 57.1605 108.819 57.1568C108.39 57.1568 107.986 57.23 107.593 57.3372L101.458 51.09C101.566 50.6927 101.638 50.2808 101.638 49.8445C101.638 47.1438 99.5024 44.9696 96.8501 44.9696C94.1978 44.9696 92.0625 47.1438 92.0625 49.8445C92.0625 52.5452 94.1978 54.7194 96.8501 54.7194C97.2786 54.7194 97.6831 54.6463 98.0757 54.539L104.211 60.7862C104.096 61.1911 104.035 61.6102 104.031 62.0317C104.031 64.7324 106.167 66.9066 108.819 66.9066C111.471 66.9066 113.607 64.7324 113.607 62.0317C113.607 61.454 113.492 60.9105 113.312 60.3962L120.285 52.0065C120.829 52.1674 121.391 52.2819 121.985 52.2819C122.929 52.2766 123.859 52.0418 124.697 51.597L130.44 56.3817C130.395 56.6377 130.369 56.8968 130.363 57.1568C130.363 59.8575 132.498 62.0317 135.151 62.0317C137.803 62.0317 139.938 59.8575 139.938 57.1568C139.938 54.4561 137.803 52.2819 135.151 52.2819Z" fill="#0D5C63"/>
</g>
<path d="M70.24 103.04H81.56V131H75.56V108.36H70.24V103.04ZM91.2128 104.6C93.0795 103.133 95.3995 102.4 98.1728 102.4C100.946 102.4 103.253 103.133 105.093 104.6C106.933 106.067 107.853 107.88 107.853 110.04C107.853 112.173 107.026 114.013 105.373 115.56C107.693 117.347 108.853 119.693 108.853 122.6C108.853 125.053 107.866 127.12 105.893 128.8C103.919 130.48 101.346 131.32 98.1728 131.32C94.9995 131.32 92.4261 130.48 90.4528 128.8C88.4795 127.12 87.4928 125.053 87.4928 122.6C87.4928 119.693 88.6528 117.347 90.9728 115.56C89.2928 113.987 88.4528 112.133 88.4528 110C88.4528 107.867 89.3728 106.067 91.2128 104.6ZM95.1328 125.2C96.0661 125.813 97.0795 126.12 98.1728 126.12C99.2661 126.12 100.279 125.813 101.213 125.2C102.146 124.56 102.613 123.64 102.613 122.44C102.613 121.24 102.159 120.32 101.253 119.68C100.346 119.04 99.3195 118.72 98.1728 118.72C97.0261 118.72 95.9995 119.04 95.0928 119.68C94.1861 120.32 93.7328 121.24 93.7328 122.44C93.7328 123.64 94.1995 124.56 95.1328 125.2ZM95.4928 112.96C96.2661 113.6 97.1595 113.92 98.1728 113.92C99.1861 113.92 100.066 113.6 100.813 112.96C101.586 112.32 101.973 111.533 101.973 110.6C101.973 109.64 101.599 108.84 100.853 108.2C100.106 107.56 99.2128 107.24 98.1728 107.24C97.1328 107.24 96.2395 107.56 95.4928 108.2C94.7461 108.84 94.3728 109.64 94.3728 110.6C94.3728 111.533 94.7461 112.32 95.4928 112.96ZM112.437 103.04H123.757V131H117.757V108.36H112.437V103.04ZM147.197 126.64V119.44H140.197V114.52H147.197V107.32H152.717V114.52H159.717V119.44H152.717V126.64H147.197Z" fill="#252B42"/>
<path d="M51.1482 161.816V164.008H45.9642V166.424H50.8922V168.616H45.9642V173H43.4682V161.816H51.1482ZM55.5251 173H53.1251V164.392H55.5251V173ZM53.3171 163.304C53.0504 163.027 52.9171 162.691 52.9171 162.296C52.9171 161.901 53.0504 161.571 53.3171 161.304C53.5944 161.027 53.9304 160.888 54.3251 160.888C54.7197 160.888 55.0504 161.027 55.3171 161.304C55.5944 161.571 55.7331 161.901 55.7331 162.296C55.7331 162.691 55.5944 163.027 55.3171 163.304C55.0504 163.571 54.7197 163.704 54.3251 163.704C53.9304 163.704 53.5944 163.571 53.3171 163.304ZM60.2969 168.2V173H57.8969V164.392H60.2969V165.352C61.0223 164.616 61.8383 164.248 62.7449 164.248C63.6516 164.248 64.4089 164.568 65.0169 165.208C65.6356 165.848 65.9449 166.701 65.9449 167.768V173H63.5449V168.136C63.5449 166.813 63.0596 166.152 62.0889 166.152C61.6089 166.152 61.1876 166.328 60.8249 166.68C60.4729 167.021 60.2969 167.528 60.2969 168.2ZM75.5277 173H73.2717V171.96C72.653 172.739 71.885 173.128 70.9677 173.128C70.061 173.128 69.2984 172.867 68.6797 172.344C68.061 171.811 67.7517 171.107 67.7517 170.232C67.7517 169.347 68.0717 168.685 68.7117 168.248C69.3517 167.811 70.2264 167.592 71.3357 167.592H73.1277V167.544C73.1277 166.627 72.6424 166.168 71.6717 166.168C71.2557 166.168 70.813 166.253 70.3437 166.424C69.885 166.584 69.4957 166.787 69.1757 167.032L68.1037 165.48C69.2344 164.659 70.525 164.248 71.9757 164.248C73.021 164.248 73.8744 164.509 74.5357 165.032C75.197 165.555 75.5277 166.381 75.5277 167.512V173ZM73.1117 169.72V169.304H71.6077C70.6477 169.304 70.1677 169.603 70.1677 170.2C70.1677 170.509 70.2797 170.749 70.5037 170.92C70.7384 171.08 71.069 171.16 71.4957 171.16C71.9224 171.16 72.2957 171.032 72.6157 170.776C72.9464 170.509 73.1117 170.157 73.1117 169.72ZM80.2157 168.2V173H77.8157V164.392H80.2157V165.352C80.941 164.616 81.757 164.248 82.6637 164.248C83.5704 164.248 84.3277 164.568 84.9357 165.208C85.5544 165.848 85.8637 166.701 85.8637 167.768V173H83.4637V168.136C83.4637 166.813 82.9784 166.152 82.0077 166.152C81.5277 166.152 81.1064 166.328 80.7437 166.68C80.3917 167.021 80.2157 167.528 80.2157 168.2ZM92.2624 171C93.0624 171 93.7824 170.6 94.4224 169.8L95.8464 171.4C94.7371 172.552 93.5371 173.128 92.2464 173.128C90.9558 173.128 89.8624 172.723 88.9664 171.912C88.0811 171.091 87.6384 170.024 87.6384 168.712C87.6384 167.389 88.0864 166.317 88.9824 165.496C89.8891 164.664 90.9611 164.248 92.1984 164.248C92.8171 164.248 93.4411 164.376 94.0704 164.632C94.7104 164.888 95.2704 165.267 95.7504 165.768L94.5024 167.4C94.2251 167.069 93.8838 166.813 93.4784 166.632C93.0838 166.451 92.6891 166.36 92.2944 166.36C91.6651 166.36 91.1211 166.568 90.6624 166.984C90.2144 167.389 89.9904 167.96 89.9904 168.696C89.9904 169.421 90.2144 169.987 90.6624 170.392C91.1211 170.797 91.6544 171 92.2624 171ZM99.9469 173H97.5469V164.392H99.9469V173ZM97.7389 163.304C97.4723 163.027 97.3389 162.691 97.3389 162.296C97.3389 161.901 97.4723 161.571 97.7389 161.304C98.0163 161.027 98.3523 160.888 98.7469 160.888C99.1416 160.888 99.4723 161.027 99.7389 161.304C100.016 161.571 100.155 161.901 100.155 162.296C100.155 162.691 100.016 163.027 99.7389 163.304C99.4723 163.571 99.1416 163.704 98.7469 163.704C98.3523 163.704 98.0163 163.571 97.7389 163.304ZM109.631 173H107.375V171.96C106.756 172.739 105.988 173.128 105.071 173.128C104.164 173.128 103.401 172.867 102.783 172.344C102.164 171.811 101.855 171.107 101.855 170.232C101.855 169.347 102.175 168.685 102.815 168.248C103.455 167.811 104.329 167.592 105.439 167.592H107.231V167.544C107.231 166.627 106.745 166.168 105.775 166.168C105.359 166.168 104.916 166.253 104.447 166.424C103.988 166.584 103.599 166.787 103.279 167.032L102.207 165.48C103.337 164.659 104.628 164.248 106.079 164.248C107.124 164.248 107.977 164.509 108.639 165.032C109.3 165.555 109.631 166.381 109.631 167.512V173ZM107.215 169.72V169.304H105.711C104.751 169.304 104.271 169.603 104.271 170.2C104.271 170.509 104.383 170.749 104.607 170.92C104.841 171.08 105.172 171.16 105.599 171.16C106.025 171.16 106.399 171.032 106.719 170.776C107.049 170.509 107.215 170.157 107.215 169.72ZM114.319 173H111.919V161.128H114.319V173ZM124.849 163.752C124.433 163.752 124.103 163.853 123.857 164.056C123.623 164.248 123.505 164.509 123.505 164.84C123.505 165.16 123.649 165.416 123.937 165.608C124.236 165.8 124.913 166.029 125.969 166.296C127.036 166.552 127.863 166.941 128.449 167.464C129.036 167.987 129.329 168.749 129.329 169.752C129.329 170.755 128.951 171.571 128.193 172.2C127.447 172.819 126.46 173.128 125.233 173.128C123.463 173.128 121.868 172.472 120.449 171.16L121.937 169.336C123.143 170.392 124.257 170.92 125.281 170.92C125.74 170.92 126.097 170.824 126.353 170.632C126.62 170.429 126.753 170.163 126.753 169.832C126.753 169.491 126.615 169.224 126.337 169.032C126.06 168.829 125.511 168.627 124.689 168.424C123.388 168.115 122.433 167.715 121.825 167.224C121.228 166.723 120.929 165.944 120.929 164.888C120.929 163.821 121.308 163 122.065 162.424C122.833 161.848 123.788 161.56 124.929 161.56C125.676 161.56 126.423 161.688 127.169 161.944C127.916 162.2 128.567 162.563 129.121 163.032L127.857 164.856C126.887 164.12 125.884 163.752 124.849 163.752ZM138.769 171.752C137.798 172.669 136.657 173.128 135.345 173.128C134.043 173.128 132.966 172.728 132.113 171.928C131.259 171.117 130.833 170.035 130.833 168.68C130.833 167.325 131.265 166.248 132.129 165.448C133.003 164.648 134.033 164.248 135.217 164.248C136.401 164.248 137.403 164.605 138.225 165.32C139.057 166.035 139.473 167.016 139.473 168.264V169.544H133.201C133.275 170.013 133.521 170.397 133.937 170.696C134.353 170.995 134.822 171.144 135.345 171.144C136.187 171.144 136.881 170.861 137.425 170.296L138.769 171.752ZM137.041 167.832C136.987 167.32 136.795 166.925 136.465 166.648C136.134 166.371 135.729 166.232 135.249 166.232C134.779 166.232 134.347 166.376 133.953 166.664C133.558 166.952 133.329 167.341 133.265 167.832H137.041ZM145.831 166.504C145.117 166.504 144.583 166.76 144.231 167.272C143.879 167.773 143.703 168.44 143.703 169.272V173H141.303V164.392H143.703V165.528C144.013 165.176 144.397 164.877 144.855 164.632C145.325 164.387 145.799 164.259 146.279 164.248L146.295 166.504H145.831ZM150.301 173L146.893 164.376H149.389L151.533 169.8L153.677 164.376H156.173L152.765 173H150.301ZM159.856 173H157.456V164.392H159.856V173ZM157.648 163.304C157.382 163.027 157.248 162.691 157.248 162.296C157.248 161.901 157.382 161.571 157.648 161.304C157.926 161.027 158.262 160.888 158.656 160.888C159.051 160.888 159.382 161.027 159.648 161.304C159.926 161.571 160.064 161.901 160.064 162.296C160.064 162.691 159.926 163.027 159.648 163.304C159.382 163.571 159.051 163.704 158.656 163.704C158.262 163.704 157.926 163.571 157.648 163.304ZM166.356 171C167.156 171 167.876 170.6 168.516 169.8L169.94 171.4C168.831 172.552 167.631 173.128 166.34 173.128C165.05 173.128 163.956 172.723 163.06 171.912C162.175 171.091 161.732 170.024 161.732 168.712C161.732 167.389 162.18 166.317 163.076 165.496C163.983 164.664 165.055 164.248 166.292 164.248C166.911 164.248 167.535 164.376 168.164 164.632C168.804 164.888 169.364 165.267 169.844 165.768L168.596 167.4C168.319 167.069 167.978 166.813 167.572 166.632C167.178 166.451 166.783 166.36 166.388 166.36C165.759 166.36 165.215 166.568 164.756 166.984C164.308 167.389 164.084 167.96 164.084 168.696C164.084 169.421 164.308 169.987 164.756 170.392C165.215 170.797 165.748 171 166.356 171ZM179.097 171.752C178.126 172.669 176.985 173.128 175.673 173.128C174.371 173.128 173.294 172.728 172.441 171.928C171.587 171.117 171.161 170.035 171.161 168.68C171.161 167.325 171.593 166.248 172.457 165.448C173.331 164.648 174.361 164.248 175.545 164.248C176.729 164.248 177.731 164.605 178.553 165.32C179.385 166.035 179.801 167.016 179.801 168.264V169.544H173.529C173.603 170.013 173.849 170.397 174.265 170.696C174.681 170.995 175.15 171.144 175.673 171.144C176.515 171.144 177.209 170.861 177.753 170.296L179.097 171.752ZM177.369 167.832C177.315 167.32 177.123 166.925 176.793 166.648C176.462 166.371 176.057 166.232 175.577 166.232C175.107 166.232 174.675 166.376 174.281 166.664C173.886 166.952 173.657 167.341 173.593 167.832H177.369ZM188.111 170.328C188.111 171.171 187.797 171.848 187.167 172.36C186.549 172.872 185.759 173.128 184.799 173.128C184.159 173.128 183.493 173.016 182.799 172.792C182.106 172.557 181.482 172.216 180.927 171.768L181.983 170.264C182.879 170.957 183.834 171.304 184.847 171.304C185.157 171.304 185.402 171.245 185.583 171.128C185.765 171 185.855 170.835 185.855 170.632C185.855 170.429 185.727 170.243 185.471 170.072C185.226 169.901 184.863 169.741 184.383 169.592C183.914 169.443 183.551 169.315 183.295 169.208C183.05 169.101 182.767 168.947 182.447 168.744C181.797 168.339 181.471 167.741 181.471 166.952C181.471 166.152 181.791 165.501 182.431 165C183.071 164.499 183.898 164.248 184.911 164.248C185.925 164.248 186.938 164.589 187.951 165.272L187.055 166.872C186.309 166.36 185.562 166.104 184.815 166.104C184.079 166.104 183.711 166.307 183.711 166.712C183.711 166.936 183.829 167.112 184.063 167.24C184.298 167.368 184.687 167.517 185.231 167.688C185.775 167.859 186.159 167.992 186.383 168.088C186.618 168.173 186.895 168.312 187.215 168.504C187.813 168.867 188.111 169.475 188.111 170.328Z" fill="#737373"/>
<defs>
<clipPath id="clip0_965_126">
<rect width="48" height="48" fill="white" transform="translate(91.5 30)"/>
</clipPath>
</defs>
</svg>
