<svg width="231" height="209" viewBox="0 0 231 209" fill="none" xmlns="http://www.w3.org/2000/svg">
<rect width="230" height="209" transform="translate(0.5)" fill="white"/>
<g clip-path="url(#clip0_965_133)">
<path d="M107.064 63.9949C106.253 63.1802 106.675 63.4099 104.719 62.8839C103.832 62.6449 103.051 62.1855 102.346 61.6352L98.1112 72.0639C97.7015 73.0736 98.4668 74.1705 99.5513 74.1292L104.469 73.9408L107.851 77.5296C108.598 78.3208 109.909 78.0742 110.318 77.0646L115.176 65.1002C114.165 65.6664 113.042 65.9983 111.881 65.9983C110.061 65.9983 108.351 65.2867 107.064 63.9949V63.9949ZM133.727 72.0639L129.493 61.6352C128.787 62.1864 128.007 62.6449 127.119 62.8839C125.153 63.4127 125.584 63.1821 124.775 63.9949C123.488 65.2867 121.777 65.9983 119.957 65.9983C118.796 65.9983 117.673 65.6655 116.661 65.1002L121.519 77.0646C121.929 78.0742 123.24 78.3208 123.986 77.5296L127.369 73.9408L132.287 74.1292C133.372 74.1705 134.137 73.0727 133.727 72.0639V72.0639ZM122.546 61.8733C123.972 60.4155 124.135 60.5411 126.166 59.9852C127.463 59.6299 128.476 58.5939 128.823 57.2683C129.522 54.6058 129.341 54.9274 131.245 52.9792C132.195 52.0089 132.565 50.5942 132.218 49.2686C131.521 46.608 131.52 46.9792 132.218 44.3158C132.565 42.9902 132.195 41.5755 131.245 40.6052C129.341 38.6571 129.522 38.9777 128.823 36.3161C128.476 34.9905 127.463 33.9546 126.166 33.5993C123.564 32.8858 123.878 33.0724 121.971 31.1233C121.022 30.153 119.638 29.7733 118.341 30.1286C115.74 30.8411 116.103 30.8421 113.497 30.1286C112.201 29.7733 110.817 30.1521 109.867 31.1233C107.963 33.0714 108.276 32.8858 105.673 33.5993C104.377 33.9546 103.363 34.9905 103.016 36.3161C102.319 38.9777 102.499 38.6571 100.594 40.6052C99.6447 41.5755 99.2732 42.9902 99.6213 44.3158C100.319 46.9746 100.319 46.6033 99.6213 49.2677C99.2741 50.5933 99.6447 52.008 100.594 52.9792C102.499 54.9274 102.318 54.6058 103.016 57.2683C103.363 58.5939 104.377 59.6299 105.673 59.9852C107.762 60.5571 107.918 60.4671 109.293 61.8733C110.527 63.1361 112.451 63.3621 113.935 62.4189C114.528 62.0405 115.217 61.8396 115.92 61.8396C116.623 61.8396 117.311 62.0405 117.904 62.4189C119.387 63.3621 121.311 63.1361 122.546 61.8733ZM107.114 46.4946C107.114 41.523 111.057 37.4927 115.919 37.4927C120.782 37.4927 124.724 41.523 124.724 46.4946C124.724 51.4661 120.782 55.4964 115.919 55.4964C111.057 55.4964 107.114 51.4661 107.114 46.4946V46.4946Z" fill="#0D5C63"/>
</g>
<path d="M84.5 125.96C86.2333 125.96 87.5667 125.387 88.5 124.24C89.46 123.067 90.0467 121.48 90.26 119.48C88.5533 120.627 86.7133 121.2 84.74 121.2C82.1267 121.2 79.94 120.347 78.18 118.64C76.4467 116.907 75.58 114.627 75.58 111.8C75.58 108.973 76.5133 106.707 78.38 105C80.2733 103.267 82.6467 102.4 85.5 102.4C87.4733 102.4 89.18 102.787 90.62 103.56C92.0867 104.307 93.2333 105.36 94.06 106.72C95.6333 109.36 96.42 112.667 96.42 116.64C96.42 119.2 96.1 121.453 95.46 123.4C94.8467 125.32 94.0067 126.84 92.94 127.96C90.7533 130.2 88.1 131.32 84.98 131.32C83.6733 131.32 82.42 131.133 81.22 130.76C80.02 130.36 79.1133 129.973 78.5 129.6C77.8867 129.2 77.18 128.693 76.38 128.08L79.5 123.68C79.6867 123.84 79.9267 124.053 80.22 124.32C80.54 124.56 81.14 124.893 82.02 125.32C82.9 125.747 83.7267 125.96 84.5 125.96ZM85.34 115.88C86.5933 115.88 87.6333 115.52 88.46 114.8C89.2867 114.08 89.7 113.133 89.7 111.96C89.7 110.787 89.3 109.773 88.5 108.92C87.7 108.067 86.7 107.64 85.5 107.64C84.3 107.64 83.3133 108.027 82.54 108.8C81.7933 109.547 81.42 110.507 81.42 111.68C81.42 112.853 81.7667 113.853 82.46 114.68C83.1533 115.48 84.1133 115.88 85.34 115.88ZM104.736 104.6C106.603 103.133 108.923 102.4 111.696 102.4C114.47 102.4 116.776 103.133 118.616 104.6C120.456 106.067 121.376 107.88 121.376 110.04C121.376 112.173 120.55 114.013 118.896 115.56C121.216 117.347 122.376 119.693 122.376 122.6C122.376 125.053 121.39 127.12 119.416 128.8C117.443 130.48 114.87 131.32 111.696 131.32C108.523 131.32 105.95 130.48 103.976 128.8C102.003 127.12 101.016 125.053 101.016 122.6C101.016 119.693 102.176 117.347 104.496 115.56C102.816 113.987 101.976 112.133 101.976 110C101.976 107.867 102.896 106.067 104.736 104.6ZM108.656 125.2C109.59 125.813 110.603 126.12 111.696 126.12C112.79 126.12 113.803 125.813 114.736 125.2C115.67 124.56 116.136 123.64 116.136 122.44C116.136 121.24 115.683 120.32 114.776 119.68C113.87 119.04 112.843 118.72 111.696 118.72C110.55 118.72 109.523 119.04 108.616 119.68C107.71 120.32 107.256 121.24 107.256 122.44C107.256 123.64 107.723 124.56 108.656 125.2ZM109.016 112.96C109.79 113.6 110.683 113.92 111.696 113.92C112.71 113.92 113.59 113.6 114.336 112.96C115.11 112.32 115.496 111.533 115.496 110.6C115.496 109.64 115.123 108.84 114.376 108.2C113.63 107.56 112.736 107.24 111.696 107.24C110.656 107.24 109.763 107.56 109.016 108.2C108.27 108.84 107.896 109.64 107.896 110.6C107.896 111.533 108.27 112.32 109.016 112.96ZM154.44 103.04L134.4 131H127.52L147.6 103.04H154.44ZM147.72 127.16C148.04 127.507 148.44 127.68 148.92 127.68C149.4 127.68 149.8 127.507 150.12 127.16C150.44 126.787 150.6 126.307 150.6 125.72C150.6 125.133 150.44 124.653 150.12 124.28C149.8 123.88 149.4 123.68 148.92 123.68C148.467 123.68 148.08 123.88 147.76 124.28C147.44 124.653 147.28 125.133 147.28 125.72C147.28 126.307 147.427 126.787 147.72 127.16ZM154.84 125.72C154.84 127.293 154.28 128.627 153.16 129.72C152.04 130.787 150.627 131.32 148.92 131.32C147.24 131.32 145.84 130.773 144.72 129.68C143.6 128.587 143.04 127.267 143.04 125.72C143.04 124.147 143.6 122.813 144.72 121.72C145.84 120.627 147.24 120.08 148.92 120.08C150.627 120.08 152.04 120.627 153.16 121.72C154.28 122.813 154.84 124.147 154.84 125.72ZM131.96 110.8C132.28 111.147 132.68 111.32 133.16 111.32C133.64 111.32 134.04 111.147 134.36 110.8C134.68 110.427 134.84 109.947 134.84 109.36C134.84 108.773 134.68 108.293 134.36 107.92C134.04 107.52 133.64 107.32 133.16 107.32C132.707 107.32 132.32 107.52 132 107.92C131.68 108.293 131.52 108.773 131.52 109.36C131.52 109.947 131.667 110.427 131.96 110.8ZM139.08 109.36C139.08 110.933 138.52 112.267 137.4 113.36C136.28 114.427 134.867 114.96 133.16 114.96C131.48 114.96 130.08 114.413 128.96 113.32C127.84 112.227 127.28 110.907 127.28 109.36C127.28 107.787 127.84 106.453 128.96 105.36C130.08 104.267 131.48 103.72 133.16 103.72C134.867 103.72 136.28 104.267 137.4 105.36C138.52 106.453 139.08 107.787 139.08 109.36Z" fill="#252B42"/>
<path d="M65.0322 161.816V164.04H59.4642V166.344H64.4722V168.472H59.4642V170.792H65.2082V173H56.9682V161.816H65.0322ZM69.6188 168.2V173H67.2188V164.392H69.6188V165.352C70.3441 164.616 71.1601 164.248 72.0668 164.248C72.9735 164.248 73.7308 164.568 74.3388 165.208C74.9575 165.848 75.2668 166.701 75.2668 167.768V173H72.8668V168.136C72.8668 166.813 72.3815 166.152 71.4108 166.152C70.9308 166.152 70.5095 166.328 70.1468 166.68C69.7948 167.021 69.6188 167.528 69.6188 168.2ZM79.7169 173L76.3089 164.376H78.8049L80.9489 169.8L83.0929 164.376H85.5889L82.1809 173H79.7169ZM89.2719 173H86.8719V164.392H89.2719V173ZM87.0639 163.304C86.7973 163.027 86.6639 162.691 86.6639 162.296C86.6639 161.901 86.7973 161.571 87.0639 161.304C87.3413 161.027 87.6773 160.888 88.0719 160.888C88.4666 160.888 88.7973 161.027 89.0639 161.304C89.3413 161.571 89.4799 161.901 89.4799 162.296C89.4799 162.691 89.3413 163.027 89.0639 163.304C88.7973 163.571 88.4666 163.704 88.0719 163.704C87.6773 163.704 87.3413 163.571 87.0639 163.304ZM96.1718 166.504C95.4571 166.504 94.9238 166.76 94.5718 167.272C94.2198 167.773 94.0438 168.44 94.0438 169.272V173H91.6438V164.392H94.0438V165.528C94.3531 165.176 94.7371 164.877 95.1958 164.632C95.6651 164.387 96.1398 164.259 96.6198 164.248L96.6358 166.504H96.1718ZM100.117 168.696C100.117 169.4 100.314 169.976 100.709 170.424C101.114 170.861 101.626 171.08 102.245 171.08C102.874 171.08 103.386 170.861 103.781 170.424C104.186 169.976 104.389 169.4 104.389 168.696C104.389 167.992 104.186 167.416 103.781 166.968C103.386 166.52 102.874 166.296 102.245 166.296C101.626 166.296 101.114 166.52 100.709 166.968C100.314 167.416 100.117 167.992 100.117 168.696ZM106.805 168.696C106.805 169.944 106.373 170.995 105.509 171.848C104.645 172.701 103.557 173.128 102.245 173.128C100.944 173.128 99.8609 172.701 98.9969 171.848C98.1329 170.995 97.7009 169.944 97.7009 168.696C97.7009 167.448 98.1329 166.397 98.9969 165.544C99.8609 164.68 100.944 164.248 102.245 164.248C103.557 164.248 104.645 164.68 105.509 165.544C106.373 166.397 106.805 167.448 106.805 168.696ZM111.088 168.2V173H108.688V164.392H111.088V165.352C111.813 164.616 112.629 164.248 113.536 164.248C114.442 164.248 115.2 164.568 115.808 165.208C116.426 165.848 116.736 166.701 116.736 167.768V173H114.336V168.136C114.336 166.813 113.85 166.152 112.88 166.152C112.4 166.152 111.978 166.328 111.616 166.68C111.264 167.021 111.088 167.528 111.088 168.2ZM126.91 168.36V173H124.494V168.296C124.494 167.613 124.388 167.112 124.174 166.792C123.972 166.472 123.636 166.312 123.166 166.312C122.708 166.312 122.297 166.488 121.934 166.84C121.582 167.181 121.406 167.688 121.406 168.36V173H119.006V164.392H121.406V165.368C122.068 164.621 122.825 164.248 123.678 164.248C124.222 164.248 124.713 164.408 125.15 164.728C125.598 165.048 125.934 165.437 126.158 165.896C126.489 165.373 126.932 164.968 127.486 164.68C128.052 164.392 128.617 164.248 129.182 164.248C130.196 164.248 131.012 164.552 131.63 165.16C132.249 165.757 132.558 166.627 132.558 167.768V173H130.142V168.296C130.142 166.973 129.657 166.312 128.686 166.312C128.206 166.312 127.79 166.488 127.438 166.84C127.086 167.181 126.91 167.688 126.91 168.36ZM142.297 171.752C141.326 172.669 140.185 173.128 138.873 173.128C137.571 173.128 136.494 172.728 135.641 171.928C134.787 171.117 134.361 170.035 134.361 168.68C134.361 167.325 134.793 166.248 135.657 165.448C136.531 164.648 137.561 164.248 138.745 164.248C139.929 164.248 140.931 164.605 141.753 165.32C142.585 166.035 143.001 167.016 143.001 168.264V169.544H136.729C136.803 170.013 137.049 170.397 137.465 170.696C137.881 170.995 138.35 171.144 138.873 171.144C139.715 171.144 140.409 170.861 140.953 170.296L142.297 171.752ZM140.569 167.832C140.515 167.32 140.323 166.925 139.993 166.648C139.662 166.371 139.257 166.232 138.777 166.232C138.307 166.232 137.875 166.376 137.481 166.664C137.086 166.952 136.857 167.341 136.793 167.832H140.569ZM147.231 168.2V173H144.831V164.392H147.231V165.352C147.957 164.616 148.773 164.248 149.679 164.248C150.586 164.248 151.343 164.568 151.951 165.208C152.57 165.848 152.879 166.701 152.879 167.768V173H150.479V168.136C150.479 166.813 149.994 166.152 149.023 166.152C148.543 166.152 148.122 166.328 147.759 166.68C147.407 167.021 147.231 167.528 147.231 168.2ZM157.889 166.12V169.976C157.889 170.307 157.974 170.568 158.145 170.76C158.316 170.941 158.518 171.032 158.753 171.032C159.201 171.032 159.58 170.829 159.889 170.424L160.785 172.104C160.038 172.787 159.249 173.128 158.417 173.128C157.596 173.128 156.897 172.856 156.321 172.312C155.756 171.768 155.473 171.027 155.473 170.088V166.12H154.465V164.392H155.473V161.816H157.889V164.392H159.969V166.12H157.889ZM169.484 173H167.228V171.96C166.609 172.739 165.841 173.128 164.924 173.128C164.017 173.128 163.255 172.867 162.636 172.344C162.017 171.811 161.708 171.107 161.708 170.232C161.708 169.347 162.028 168.685 162.668 168.248C163.308 167.811 164.183 167.592 165.292 167.592H167.084V167.544C167.084 166.627 166.599 166.168 165.628 166.168C165.212 166.168 164.769 166.253 164.3 166.424C163.841 166.584 163.452 166.787 163.132 167.032L162.06 165.48C163.191 164.659 164.481 164.248 165.932 164.248C166.977 164.248 167.831 164.509 168.492 165.032C169.153 165.555 169.484 166.381 169.484 167.512V173ZM167.068 169.72V169.304H165.564C164.604 169.304 164.124 169.603 164.124 170.2C164.124 170.509 164.236 170.749 164.46 170.92C164.695 171.08 165.025 171.16 165.452 171.16C165.879 171.16 166.252 171.032 166.572 170.776C166.903 170.509 167.068 170.157 167.068 169.72ZM174.172 173H171.772V161.128H174.172V173Z" fill="#737373"/>
<defs>
<clipPath id="clip0_965_133">
<rect width="35.84" height="48" fill="white" transform="translate(98 30)"/>
</clipPath>
</defs>
</svg>
